<svg width="287" height="95" viewBox="0 0 287 95" fill="none" xmlns="http://www.w3.org/2000/svg">
<path d="M22.864 22.632L19.624 13.056C19.384 12.448 19.128 11.736 18.856 10.92C18.584 10.088 18.312 9.192 18.04 8.232C17.8 9.208 17.544 10.112 17.272 10.944C17 11.776 16.744 12.496 16.504 13.104L13.288 22.632H22.864ZM35.752 36H29.464C28.76 36 28.192 35.84 27.76 35.52C27.328 35.184 27 34.76 26.776 34.248L24.712 28.152H11.416L9.352 34.248C9.176 34.696 8.856 35.104 8.392 35.472C7.944 35.824 7.384 36 6.712 36H0.376L13.912 1.032H22.216L35.752 36ZM59.581 29.52V36H38.509V1.032H46.621V29.52H59.581ZM84.7998 29.52V36H63.7278V1.032H71.8398V29.52H84.7998ZM23.704 66.136C23.464 66.52 23.208 66.808 22.936 67C22.68 67.192 22.344 67.288 21.928 67.288C21.56 67.288 21.16 67.176 20.728 66.952C20.312 66.712 19.832 66.448 19.288 66.16C18.76 65.872 18.152 65.616 17.464 65.392C16.776 65.152 15.992 65.032 15.112 65.032C13.592 65.032 12.456 65.36 11.704 66.016C10.968 66.656 10.6 67.528 10.6 68.632C10.6 69.336 10.824 69.92 11.272 70.384C11.72 70.848 12.304 71.248 13.024 71.584C13.76 71.92 14.592 72.232 15.52 72.52C16.464 72.792 17.424 73.104 18.4 73.456C19.376 73.792 20.328 74.192 21.256 74.656C22.2 75.12 23.032 75.712 23.752 76.432C24.488 77.152 25.08 78.032 25.528 79.072C25.976 80.096 26.2 81.336 26.2 82.792C26.2 84.408 25.92 85.92 25.36 87.328C24.8 88.736 23.984 89.968 22.912 91.024C21.856 92.064 20.544 92.888 18.976 93.496C17.424 94.088 15.656 94.384 13.672 94.384C12.584 94.384 11.472 94.272 10.336 94.048C9.216 93.824 8.128 93.512 7.072 93.112C6.016 92.696 5.024 92.208 4.096 91.648C3.168 91.088 2.36 90.464 1.672 89.776L4.072 85.984C4.264 85.712 4.512 85.488 4.816 85.312C5.136 85.12 5.48 85.024 5.848 85.024C6.328 85.024 6.808 85.176 7.288 85.48C7.784 85.784 8.336 86.12 8.944 86.488C9.568 86.856 10.28 87.192 11.08 87.496C11.88 87.8 12.824 87.952 13.912 87.952C15.384 87.952 16.528 87.632 17.344 86.992C18.16 86.336 18.568 85.304 18.568 83.896C18.568 83.08 18.344 82.416 17.896 81.904C17.448 81.392 16.856 80.968 16.12 80.632C15.4 80.296 14.576 80 13.648 79.744C12.72 79.488 11.768 79.208 10.792 78.904C9.816 78.584 8.864 78.2 7.936 77.752C7.008 77.288 6.176 76.688 5.44 75.952C4.72 75.2 4.136 74.272 3.688 73.168C3.24 72.048 3.016 70.672 3.016 69.04C3.016 67.728 3.28 66.448 3.808 65.2C4.336 63.952 5.112 62.84 6.136 61.864C7.16 60.888 8.416 60.112 9.904 59.536C11.392 58.944 13.096 58.648 15.016 58.648C16.088 58.648 17.128 58.736 18.136 58.912C19.16 59.072 20.128 59.32 21.04 59.656C21.952 59.976 22.8 60.368 23.584 60.832C24.384 61.28 25.096 61.792 25.72 62.368L23.704 66.136ZM78.3209 59.032L67.5209 94H60.1769L53.6009 72.328C53.4729 71.992 53.3529 71.624 53.2409 71.224C53.1289 70.808 53.0169 70.376 52.9049 69.928C52.7929 70.376 52.6809 70.808 52.5689 71.224C52.4569 71.624 52.3369 71.992 52.2089 72.328L45.5369 94H38.1929L27.3929 59.032H34.2089C34.9129 59.032 35.4969 59.192 35.9609 59.512C36.4409 59.832 36.7529 60.256 36.8969 60.784L41.6969 79.024C41.8409 79.6 41.9849 80.232 42.1289 80.92C42.2729 81.592 42.4169 82.296 42.5609 83.032C42.8489 81.528 43.2009 80.192 43.6169 79.024L49.2809 60.784C49.4249 60.336 49.7289 59.936 50.1929 59.584C50.6729 59.216 51.2489 59.032 51.9209 59.032H54.3209C55.0249 59.032 55.5929 59.2 56.0249 59.536C56.4569 59.856 56.7849 60.272 57.0089 60.784L62.6249 79.024C63.0409 80.144 63.3929 81.416 63.6809 82.84C63.8089 82.12 63.9369 81.448 64.0649 80.824C64.2089 80.184 64.3529 79.584 64.4969 79.024L69.2969 60.784C69.4249 60.32 69.7289 59.912 70.2089 59.56C70.6889 59.208 71.2649 59.032 71.9369 59.032H78.3209ZM89.9815 94H81.8215V59.032H89.9815V94ZM136.04 59.032V94H128.888V73.888C128.888 73.424 128.896 72.92 128.912 72.376C128.944 71.832 128.992 71.28 129.056 70.72L119.768 88.696C119.48 89.256 119.088 89.68 118.592 89.968C118.112 90.256 117.56 90.4 116.936 90.4H115.832C115.208 90.4 114.648 90.256 114.152 89.968C113.672 89.68 113.288 89.256 113 88.696L103.712 70.672C103.76 71.248 103.8 71.816 103.832 72.376C103.864 72.92 103.88 73.424 103.88 73.888V94H96.7278V59.032H102.92C103.272 59.032 103.576 59.04 103.832 59.056C104.104 59.072 104.344 59.12 104.552 59.2C104.76 59.28 104.944 59.408 105.104 59.584C105.28 59.744 105.448 59.976 105.608 60.28L114.608 78.016C114.928 78.624 115.232 79.256 115.52 79.912C115.824 80.568 116.112 81.24 116.384 81.928C116.656 81.224 116.936 80.536 117.224 79.864C117.528 79.192 117.848 78.552 118.184 77.944L127.16 60.28C127.32 59.976 127.48 59.744 127.64 59.584C127.816 59.408 128.008 59.28 128.216 59.2C128.424 59.12 128.656 59.072 128.912 59.056C129.184 59.04 129.496 59.032 129.848 59.032H136.04ZM154.182 75.472C155.286 75.472 156.222 75.336 156.99 75.064C157.774 74.776 158.414 74.384 158.91 73.888C159.406 73.392 159.766 72.816 159.99 72.16C160.214 71.488 160.326 70.768 160.326 70C160.326 68.464 159.822 67.264 158.814 66.4C157.822 65.536 156.278 65.104 154.182 65.104H150.918V75.472H154.182ZM171.414 94H164.07C162.71 94 161.734 93.488 161.142 92.464L155.334 82.312C155.062 81.88 154.758 81.568 154.422 81.376C154.086 81.168 153.606 81.064 152.982 81.064H150.918V94H142.806V59.032H154.182C156.71 59.032 158.862 59.296 160.638 59.824C162.43 60.336 163.886 61.056 165.006 61.984C166.142 62.912 166.966 64.008 167.478 65.272C167.99 66.536 168.246 67.912 168.246 69.4C168.246 70.536 168.094 71.608 167.79 72.616C167.486 73.624 167.038 74.56 166.446 75.424C165.854 76.272 165.118 77.032 164.238 77.704C163.374 78.376 162.374 78.928 161.238 79.36C161.766 79.632 162.262 79.976 162.726 80.392C163.19 80.792 163.606 81.272 163.974 81.832L171.414 94ZM182.513 94H174.353V59.032H182.513V94ZM206.059 75.88H218.491V90.64C216.699 91.952 214.787 92.904 212.755 93.496C210.739 94.088 208.627 94.384 206.419 94.384C203.539 94.384 200.915 93.936 198.547 93.04C196.195 92.128 194.179 90.88 192.499 89.296C190.819 87.696 189.523 85.808 188.611 83.632C187.699 81.44 187.243 79.064 187.243 76.504C187.243 73.896 187.675 71.504 188.539 69.328C189.403 67.136 190.635 65.248 192.235 63.664C193.851 62.08 195.795 60.848 198.067 59.968C200.355 59.088 202.907 58.648 205.723 58.648C207.179 58.648 208.547 58.768 209.827 59.008C211.107 59.248 212.283 59.576 213.355 59.992C214.443 60.408 215.435 60.904 216.331 61.48C217.227 62.056 218.027 62.68 218.731 63.352L216.379 66.928C216.011 67.488 215.531 67.832 214.939 67.96C214.363 68.088 213.739 67.944 213.067 67.528C212.427 67.144 211.819 66.816 211.243 66.544C210.683 66.256 210.107 66.024 209.515 65.848C208.923 65.672 208.299 65.544 207.643 65.464C206.987 65.384 206.251 65.344 205.435 65.344C203.915 65.344 202.547 65.616 201.331 66.16C200.115 66.688 199.075 67.44 198.211 68.416C197.363 69.392 196.707 70.568 196.243 71.944C195.779 73.304 195.547 74.824 195.547 76.504C195.547 78.36 195.803 80.008 196.315 81.448C196.827 82.888 197.547 84.104 198.475 85.096C199.419 86.088 200.539 86.848 201.835 87.376C203.147 87.888 204.595 88.144 206.179 88.144C207.155 88.144 208.035 88.048 208.819 87.856C209.619 87.664 210.395 87.408 211.147 87.088V81.784H207.691C207.179 81.784 206.779 81.648 206.491 81.376C206.203 81.104 206.059 80.76 206.059 80.344V75.88ZM254.475 59.032V94H246.315V79.216H232.107V94H223.947V59.032H232.107V73.648H246.315V59.032H254.475ZM286.387 65.464H276.547V94H268.435V65.464H258.595V59.032H286.387V65.464Z" fill="white"/>
<path d="M117.083 22.632L113.843 13.056C113.603 12.448 113.347 11.736 113.075 10.92C112.803 10.088 112.531 9.192 112.259 8.232C112.019 9.208 111.763 10.112 111.491 10.944C111.219 11.776 110.963 12.496 110.723 13.104L107.507 22.632H117.083ZM129.971 36H123.683C122.979 36 122.411 35.84 121.979 35.52C121.547 35.184 121.219 34.76 120.995 34.248L118.931 28.152H105.635L103.571 34.248C103.395 34.696 103.075 35.104 102.611 35.472C102.163 35.824 101.603 36 100.931 36H94.5947L108.131 1.032H116.435L129.971 36ZM146.552 29.88C147.624 29.88 148.496 29.744 149.168 29.472C149.856 29.2 150.392 28.848 150.776 28.416C151.16 27.984 151.424 27.496 151.568 26.952C151.712 26.408 151.784 25.856 151.784 25.296C151.784 24.656 151.696 24.08 151.52 23.568C151.36 23.056 151.072 22.624 150.656 22.272C150.256 21.92 149.72 21.648 149.048 21.456C148.376 21.264 147.528 21.168 146.504 21.168H140.84V29.88H146.552ZM140.84 7.104V15.744H145.064C145.96 15.744 146.768 15.68 147.488 15.552C148.208 15.424 148.816 15.2 149.312 14.88C149.824 14.56 150.208 14.12 150.464 13.56C150.736 13 150.872 12.296 150.872 11.448C150.872 10.616 150.768 9.928 150.56 9.384C150.352 8.824 150.032 8.376 149.6 8.04C149.168 7.704 148.616 7.464 147.944 7.32C147.288 7.176 146.504 7.104 145.592 7.104H140.84ZM145.592 1.032C148.008 1.032 150.064 1.256 151.76 1.704C153.456 2.152 154.84 2.784 155.912 3.6C156.984 4.416 157.76 5.408 158.24 6.576C158.736 7.744 158.984 9.048 158.984 10.488C158.984 11.272 158.872 12.032 158.648 12.768C158.424 13.488 158.072 14.168 157.592 14.808C157.112 15.432 156.496 16.008 155.744 16.536C154.992 17.064 154.088 17.52 153.032 17.904C155.336 18.464 157.04 19.368 158.144 20.616C159.248 21.864 159.8 23.48 159.8 25.464C159.8 26.952 159.512 28.336 158.936 29.616C158.36 30.896 157.512 32.016 156.392 32.976C155.288 33.92 153.92 34.664 152.288 35.208C150.656 35.736 148.792 36 146.696 36H132.728V1.032H145.592ZM199.204 18.504C199.204 21.032 198.764 23.384 197.884 25.56C197.02 27.736 195.796 29.632 194.212 31.248C192.628 32.848 190.716 34.104 188.476 35.016C186.252 35.928 183.78 36.384 181.06 36.384C178.34 36.384 175.86 35.928 173.62 35.016C171.38 34.104 169.46 32.848 167.86 31.248C166.276 29.632 165.044 27.736 164.164 25.56C163.3 23.384 162.868 21.032 162.868 18.504C162.868 15.976 163.3 13.624 164.164 11.448C165.044 9.272 166.276 7.384 167.86 5.784C169.46 4.184 171.38 2.928 173.62 2.016C175.86 1.104 178.34 0.647999 181.06 0.647999C183.78 0.647999 186.252 1.112 188.476 2.04C190.716 2.952 192.628 4.208 194.212 5.808C195.796 7.408 197.02 9.296 197.884 11.472C198.764 13.648 199.204 15.992 199.204 18.504ZM190.9 18.504C190.9 16.776 190.676 15.224 190.228 13.848C189.78 12.456 189.132 11.28 188.284 10.32C187.452 9.36 186.428 8.624 185.212 8.112C183.996 7.6 182.612 7.344 181.06 7.344C179.492 7.344 178.092 7.6 176.86 8.112C175.644 8.624 174.612 9.36 173.764 10.32C172.932 11.28 172.292 12.456 171.844 13.848C171.396 15.224 171.172 16.776 171.172 18.504C171.172 20.248 171.396 21.816 171.844 23.208C172.292 24.584 172.932 25.752 173.764 26.712C174.612 27.672 175.644 28.408 176.86 28.92C178.092 29.416 179.492 29.664 181.06 29.664C182.612 29.664 183.996 29.416 185.212 28.92C186.428 28.408 187.452 27.672 188.284 26.712C189.132 25.752 189.78 24.584 190.228 23.208C190.676 21.816 190.9 20.248 190.9 18.504ZM218.57 29.592C219.658 29.592 220.626 29.416 221.474 29.064C222.338 28.696 223.066 28.176 223.658 27.504C224.25 26.832 224.698 26.016 225.002 25.056C225.322 24.08 225.482 22.976 225.482 21.744V1.032H233.594V21.744C233.594 23.888 233.242 25.856 232.538 27.648C231.85 29.44 230.858 30.984 229.562 32.28C228.266 33.576 226.69 34.584 224.834 35.304C222.978 36.024 220.89 36.384 218.57 36.384C216.234 36.384 214.138 36.024 212.282 35.304C210.426 34.584 208.85 33.576 207.554 32.28C206.258 30.984 205.266 29.44 204.578 27.648C203.89 25.856 203.546 23.888 203.546 21.744V1.032H211.658V21.72C211.658 22.952 211.81 24.056 212.114 25.032C212.434 25.992 212.89 26.816 213.482 27.504C214.074 28.176 214.794 28.696 215.642 29.064C216.506 29.416 217.482 29.592 218.57 29.592ZM265.059 7.464H255.219V36H247.107V7.464H237.267V1.032H265.059V7.464Z" fill="#F0D402"/>
</svg>
