<svg width="297" height="37" viewBox="0 0 297 37" fill="none" xmlns="http://www.w3.org/2000/svg">
<path d="M25.952 26.952C26.144 26.952 26.336 26.992 26.528 27.072C26.72 27.136 26.904 27.256 27.08 27.432L30.296 30.816C28.888 32.656 27.12 34.048 24.992 34.992C22.88 35.92 20.376 36.384 17.48 36.384C14.824 36.384 12.44 35.936 10.328 35.04C8.232 34.128 6.448 32.88 4.976 31.296C3.52 29.696 2.4 27.808 1.616 25.632C0.832 23.44 0.44 21.064 0.44 18.504C0.44 15.896 0.864 13.504 1.712 11.328C2.56 9.136 3.752 7.248 5.288 5.664C6.824 4.08 8.664 2.848 10.808 1.968C12.952 1.088 15.312 0.647999 17.888 0.647999C19.2 0.647999 20.432 0.767999 21.584 1.008C22.752 1.232 23.84 1.552 24.848 1.968C25.856 2.368 26.784 2.856 27.632 3.432C28.48 4.008 29.232 4.632 29.888 5.304L27.152 8.976C26.976 9.2 26.768 9.408 26.528 9.6C26.288 9.776 25.952 9.864 25.52 9.864C25.232 9.864 24.96 9.8 24.704 9.672C24.448 9.544 24.176 9.392 23.888 9.216C23.6 9.024 23.28 8.824 22.928 8.616C22.592 8.392 22.184 8.192 21.704 8.016C21.24 7.824 20.688 7.664 20.048 7.536C19.424 7.408 18.688 7.344 17.84 7.344C16.496 7.344 15.264 7.592 14.144 8.088C13.04 8.584 12.08 9.312 11.264 10.272C10.464 11.216 9.84 12.384 9.392 13.776C8.96 15.152 8.744 16.728 8.744 18.504C8.744 20.296 8.984 21.888 9.464 23.28C9.96 24.672 10.624 25.848 11.456 26.808C12.304 27.752 13.288 28.472 14.408 28.968C15.528 29.464 16.728 29.712 18.008 29.712C18.744 29.712 19.416 29.68 20.024 29.616C20.632 29.536 21.2 29.416 21.728 29.256C22.256 29.08 22.752 28.856 23.216 28.584C23.68 28.296 24.152 27.936 24.632 27.504C24.824 27.344 25.032 27.216 25.256 27.12C25.48 27.008 25.712 26.952 25.952 26.952ZM67.3603 18.504C67.3603 21.032 66.9203 23.384 66.0403 25.56C65.1763 27.736 63.9523 29.632 62.3683 31.248C60.7843 32.848 58.8723 34.104 56.6323 35.016C54.4083 35.928 51.9363 36.384 49.2163 36.384C46.4963 36.384 44.0163 35.928 41.7762 35.016C39.5363 34.104 37.6163 32.848 36.0163 31.248C34.4323 29.632 33.2003 27.736 32.3203 25.56C31.4563 23.384 31.0243 21.032 31.0243 18.504C31.0243 15.976 31.4563 13.624 32.3203 11.448C33.2003 9.272 34.4323 7.384 36.0163 5.784C37.6163 4.184 39.5363 2.928 41.7762 2.016C44.0163 1.104 46.4963 0.647999 49.2163 0.647999C51.9363 0.647999 54.4083 1.112 56.6323 2.04C58.8723 2.952 60.7843 4.208 62.3683 5.808C63.9523 7.408 65.1763 9.296 66.0403 11.472C66.9203 13.648 67.3603 15.992 67.3603 18.504ZM59.0563 18.504C59.0563 16.776 58.8323 15.224 58.3843 13.848C57.9363 12.456 57.2883 11.28 56.4403 10.32C55.6083 9.36 54.5843 8.624 53.3683 8.112C52.1523 7.6 50.7683 7.344 49.2163 7.344C47.6483 7.344 46.2483 7.6 45.0163 8.112C43.8003 8.624 42.7683 9.36 41.9203 10.32C41.0883 11.28 40.4483 12.456 40.0003 13.848C39.5523 15.224 39.3283 16.776 39.3283 18.504C39.3283 20.248 39.5523 21.816 40.0003 23.208C40.4483 24.584 41.0883 25.752 41.9203 26.712C42.7683 27.672 43.8003 28.408 45.0163 28.92C46.2483 29.416 47.6483 29.664 49.2163 29.664C50.7683 29.664 52.1523 29.416 53.3683 28.92C54.5843 28.408 55.6083 27.672 56.4403 26.712C57.2883 25.752 57.9363 24.584 58.3843 23.208C58.8323 21.816 59.0563 20.248 59.0563 18.504ZM102.662 1.032V36H98.438C97.814 36 97.286 35.904 96.854 35.712C96.438 35.504 96.022 35.152 95.606 34.656L79.118 13.8C79.182 14.424 79.222 15.032 79.238 15.624C79.27 16.2 79.286 16.744 79.286 17.256V36H72.134V1.032H76.406C76.758 1.032 77.054 1.048 77.294 1.08C77.534 1.112 77.75 1.176 77.942 1.272C78.134 1.352 78.318 1.472 78.494 1.632C78.67 1.792 78.87 2.008 79.094 2.28L95.726 23.28C95.646 22.608 95.59 21.96 95.558 21.336C95.526 20.696 95.51 20.096 95.51 19.536V1.032H102.662ZM134.575 7.464H124.735V36H116.623V7.464H106.783V1.032H134.575V7.464ZM153.755 22.632L150.515 13.056C150.275 12.448 150.019 11.736 149.747 10.92C149.475 10.088 149.203 9.192 148.931 8.232C148.691 9.208 148.435 10.112 148.163 10.944C147.891 11.776 147.635 12.496 147.395 13.104L144.179 22.632H153.755ZM166.643 36H160.355C159.651 36 159.083 35.84 158.651 35.52C158.219 35.184 157.891 34.76 157.667 34.248L155.603 28.152H142.307L140.243 34.248C140.067 34.696 139.747 35.104 139.283 35.472C138.835 35.824 138.275 36 137.603 36H131.267L144.803 1.032H153.107L166.643 36ZM191.796 26.952C191.988 26.952 192.18 26.992 192.372 27.072C192.564 27.136 192.748 27.256 192.924 27.432L196.14 30.816C194.732 32.656 192.964 34.048 190.836 34.992C188.724 35.92 186.22 36.384 183.324 36.384C180.668 36.384 178.284 35.936 176.172 35.04C174.076 34.128 172.292 32.88 170.82 31.296C169.364 29.696 168.244 27.808 167.46 25.632C166.676 23.44 166.284 21.064 166.284 18.504C166.284 15.896 166.708 13.504 167.556 11.328C168.404 9.136 169.596 7.248 171.132 5.664C172.668 4.08 174.508 2.848 176.652 1.968C178.796 1.088 181.156 0.647999 183.732 0.647999C185.044 0.647999 186.276 0.767999 187.428 1.008C188.596 1.232 189.684 1.552 190.692 1.968C191.7 2.368 192.628 2.856 193.476 3.432C194.324 4.008 195.076 4.632 195.732 5.304L192.996 8.976C192.82 9.2 192.612 9.408 192.372 9.6C192.132 9.776 191.796 9.864 191.364 9.864C191.076 9.864 190.804 9.8 190.548 9.672C190.292 9.544 190.02 9.392 189.732 9.216C189.444 9.024 189.124 8.824 188.772 8.616C188.436 8.392 188.028 8.192 187.548 8.016C187.084 7.824 186.532 7.664 185.892 7.536C185.268 7.408 184.532 7.344 183.684 7.344C182.34 7.344 181.108 7.592 179.988 8.088C178.884 8.584 177.924 9.312 177.108 10.272C176.308 11.216 175.684 12.384 175.236 13.776C174.804 15.152 174.588 16.728 174.588 18.504C174.588 20.296 174.828 21.888 175.308 23.28C175.804 24.672 176.468 25.848 177.3 26.808C178.148 27.752 179.132 28.472 180.252 28.968C181.372 29.464 182.572 29.712 183.852 29.712C184.588 29.712 185.26 29.68 185.868 29.616C186.476 29.536 187.044 29.416 187.572 29.256C188.1 29.08 188.596 28.856 189.06 28.584C189.524 28.296 189.996 27.936 190.476 27.504C190.668 27.344 190.876 27.216 191.1 27.12C191.324 27.008 191.556 26.952 191.796 26.952ZM224.809 7.464H214.969V36H206.857V7.464H197.017V1.032H224.809V7.464Z" fill="white"/>
<path d="M253.179 29.592C254.267 29.592 255.235 29.416 256.083 29.064C256.947 28.696 257.675 28.176 258.267 27.504C258.859 26.832 259.307 26.016 259.611 25.056C259.931 24.08 260.091 22.976 260.091 21.744V1.032H268.203V21.744C268.203 23.888 267.851 25.856 267.147 27.648C266.459 29.44 265.467 30.984 264.171 32.28C262.875 33.576 261.299 34.584 259.443 35.304C257.587 36.024 255.499 36.384 253.179 36.384C250.843 36.384 248.747 36.024 246.891 35.304C245.035 34.584 243.459 33.576 242.163 32.28C240.867 30.984 239.875 29.44 239.187 27.648C238.499 25.856 238.155 23.888 238.155 21.744V1.032H246.267V21.72C246.267 22.952 246.419 24.056 246.723 25.032C247.043 25.992 247.499 26.816 248.091 27.504C248.683 28.176 249.403 28.696 250.251 29.064C251.115 29.416 252.091 29.592 253.179 29.592ZM293.86 8.136C293.62 8.52 293.364 8.808 293.092 9C292.836 9.192 292.5 9.288 292.084 9.288C291.716 9.288 291.316 9.176 290.884 8.952C290.468 8.712 289.988 8.448 289.444 8.16C288.916 7.872 288.308 7.616 287.62 7.392C286.932 7.152 286.148 7.032 285.268 7.032C283.748 7.032 282.612 7.36 281.86 8.016C281.124 8.656 280.756 9.528 280.756 10.632C280.756 11.336 280.98 11.92 281.428 12.384C281.876 12.848 282.46 13.248 283.18 13.584C283.916 13.92 284.748 14.232 285.676 14.52C286.62 14.792 287.58 15.104 288.556 15.456C289.532 15.792 290.484 16.192 291.412 16.656C292.356 17.12 293.188 17.712 293.908 18.432C294.644 19.152 295.236 20.032 295.684 21.072C296.132 22.096 296.356 23.336 296.356 24.792C296.356 26.408 296.076 27.92 295.516 29.328C294.956 30.736 294.14 31.968 293.068 33.024C292.012 34.064 290.7 34.888 289.132 35.496C287.58 36.088 285.812 36.384 283.828 36.384C282.74 36.384 281.628 36.272 280.492 36.048C279.372 35.824 278.284 35.512 277.228 35.112C276.172 34.696 275.18 34.208 274.252 33.648C273.324 33.088 272.516 32.464 271.828 31.776L274.228 27.984C274.42 27.712 274.668 27.488 274.972 27.312C275.292 27.12 275.636 27.024 276.004 27.024C276.484 27.024 276.964 27.176 277.444 27.48C277.94 27.784 278.492 28.12 279.1 28.488C279.724 28.856 280.436 29.192 281.236 29.496C282.036 29.8 282.98 29.952 284.068 29.952C285.54 29.952 286.684 29.632 287.5 28.992C288.316 28.336 288.724 27.304 288.724 25.896C288.724 25.08 288.5 24.416 288.052 23.904C287.604 23.392 287.012 22.968 286.276 22.632C285.556 22.296 284.732 22 283.804 21.744C282.876 21.488 281.924 21.208 280.948 20.904C279.972 20.584 279.02 20.2 278.092 19.752C277.164 19.288 276.332 18.688 275.596 17.952C274.876 17.2 274.292 16.272 273.844 15.168C273.396 14.048 273.172 12.672 273.172 11.04C273.172 9.728 273.436 8.448 273.964 7.2C274.492 5.952 275.268 4.84 276.292 3.864C277.316 2.888 278.572 2.112 280.06 1.536C281.548 0.943998 283.252 0.647999 285.172 0.647999C286.244 0.647999 287.284 0.735999 288.292 0.912C289.316 1.072 290.284 1.32 291.196 1.656C292.108 1.976 292.956 2.368 293.74 2.832C294.54 3.28 295.252 3.792 295.876 4.368L293.86 8.136Z" fill="#F0D402"/>
</svg>
