<svg width="422" height="37" viewBox="0 0 422 37" fill="none" xmlns="http://www.w3.org/2000/svg">
<path d="M12.72 18.192C14.832 18.192 16.352 17.688 17.28 16.68C18.208 15.672 18.672 14.264 18.672 12.456C18.672 11.656 18.552 10.928 18.312 10.272C18.072 9.616 17.704 9.056 17.208 8.592C16.728 8.112 16.112 7.744 15.36 7.488C14.624 7.232 13.744 7.104 12.72 7.104H8.496V18.192H12.72ZM12.72 1.032C15.184 1.032 17.296 1.328 19.056 1.92C20.832 2.496 22.288 3.296 23.424 4.32C24.576 5.344 25.424 6.552 25.968 7.944C26.512 9.336 26.784 10.84 26.784 12.456C26.784 14.2 26.504 15.8 25.944 17.256C25.384 18.712 24.528 19.96 23.376 21C22.224 22.04 20.76 22.856 18.984 23.448C17.224 24.024 15.136 24.312 12.72 24.312H8.496V36H0.384V1.032H12.72ZM46.9421 22.632L43.7021 13.056C43.4621 12.448 43.2061 11.736 42.9341 10.92C42.6621 10.088 42.3901 9.192 42.1181 8.232C41.8781 9.208 41.6221 10.112 41.3501 10.944C41.0781 11.776 40.8221 12.496 40.5821 13.104L37.3661 22.632H46.9421ZM59.8301 36H53.5421C52.8381 36 52.2701 35.84 51.8381 35.52C51.4061 35.184 51.0781 34.76 50.8541 34.248L48.7901 28.152H35.4941L33.4301 34.248C33.2541 34.696 32.9341 35.104 32.4701 35.472C32.0221 35.824 31.4621 36 30.7901 36H24.4541L37.9901 1.032H46.2941L59.8301 36ZM78.2153 17.88H90.6473V32.64C88.8553 33.952 86.9433 34.904 84.9113 35.496C82.8953 36.088 80.7833 36.384 78.5753 36.384C75.6953 36.384 73.0713 35.936 70.7032 35.04C68.3513 34.128 66.3353 32.88 64.6553 31.296C62.9753 29.696 61.6793 27.808 60.7673 25.632C59.8553 23.44 59.3993 21.064 59.3993 18.504C59.3993 15.896 59.8313 13.504 60.6953 11.328C61.5593 9.136 62.7913 7.248 64.3913 5.664C66.0073 4.08 67.9513 2.848 70.2233 1.968C72.5113 1.088 75.0633 0.647999 77.8793 0.647999C79.3353 0.647999 80.7033 0.767999 81.9833 1.008C83.2633 1.248 84.4393 1.576 85.5113 1.992C86.5993 2.408 87.5913 2.904 88.4873 3.48C89.3833 4.056 90.1833 4.68 90.8873 5.352L88.5353 8.928C88.1673 9.488 87.6873 9.832 87.0953 9.96C86.5193 10.088 85.8953 9.944 85.2233 9.528C84.5833 9.144 83.9753 8.816 83.3993 8.544C82.8393 8.256 82.2633 8.024 81.6713 7.848C81.0793 7.672 80.4553 7.544 79.7993 7.464C79.1433 7.384 78.4073 7.344 77.5913 7.344C76.0713 7.344 74.7033 7.616 73.4873 8.16C72.2713 8.688 71.2313 9.44 70.3672 10.416C69.5193 11.392 68.8633 12.568 68.3993 13.944C67.9353 15.304 67.7033 16.824 67.7033 18.504C67.7033 20.36 67.9593 22.008 68.4713 23.448C68.9833 24.888 69.7033 26.104 70.6313 27.096C71.5753 28.088 72.6953 28.848 73.9913 29.376C75.3033 29.888 76.7513 30.144 78.3353 30.144C79.3113 30.144 80.1913 30.048 80.9753 29.856C81.7753 29.664 82.5513 29.408 83.3033 29.088V23.784H79.8473C79.3353 23.784 78.9353 23.648 78.6473 23.376C78.3593 23.104 78.2153 22.76 78.2153 22.344V17.88ZM104.263 7.272V15.432H115.255V21.432H104.263V29.76H118.615V36H96.1028V1.032H118.615V7.272H104.263ZM258.81 7.272V16.128H270.762V22.392H258.81V36H250.65V1.032H273.162V7.272H258.81ZM311.829 18.504C311.829 21.032 311.389 23.384 310.509 25.56C309.645 27.736 308.421 29.632 306.837 31.248C305.253 32.848 303.341 34.104 301.101 35.016C298.877 35.928 296.405 36.384 293.685 36.384C290.965 36.384 288.485 35.928 286.245 35.016C284.005 34.104 282.085 32.848 280.485 31.248C278.901 29.632 277.669 27.736 276.789 25.56C275.925 23.384 275.493 21.032 275.493 18.504C275.493 15.976 275.925 13.624 276.789 11.448C277.669 9.272 278.901 7.384 280.485 5.784C282.085 4.184 284.005 2.928 286.245 2.016C288.485 1.104 290.965 0.647999 293.685 0.647999C296.405 0.647999 298.877 1.112 301.101 2.04C303.341 2.952 305.253 4.208 306.837 5.808C308.421 7.408 309.645 9.296 310.509 11.472C311.389 13.648 311.829 15.992 311.829 18.504ZM303.525 18.504C303.525 16.776 303.301 15.224 302.853 13.848C302.405 12.456 301.757 11.28 300.909 10.32C300.077 9.36 299.053 8.624 297.837 8.112C296.621 7.6 295.237 7.344 293.685 7.344C292.117 7.344 290.717 7.6 289.485 8.112C288.269 8.624 287.237 9.36 286.389 10.32C285.557 11.28 284.917 12.456 284.469 13.848C284.021 15.224 283.797 16.776 283.797 18.504C283.797 20.248 284.021 21.816 284.469 23.208C284.917 24.584 285.557 25.752 286.389 26.712C287.237 27.672 288.269 28.408 289.485 28.92C290.717 29.416 292.117 29.664 293.685 29.664C295.237 29.664 296.621 29.416 297.837 28.92C299.053 28.408 300.077 27.672 300.909 26.712C301.757 25.752 302.405 24.584 302.853 23.208C303.301 21.816 303.525 20.248 303.525 18.504ZM331.195 29.592C332.283 29.592 333.251 29.416 334.099 29.064C334.963 28.696 335.691 28.176 336.283 27.504C336.875 26.832 337.323 26.016 337.627 25.056C337.947 24.08 338.107 22.976 338.107 21.744V1.032H346.219V21.744C346.219 23.888 345.867 25.856 345.163 27.648C344.475 29.44 343.483 30.984 342.187 32.28C340.891 33.576 339.315 34.584 337.459 35.304C335.603 36.024 333.515 36.384 331.195 36.384C328.859 36.384 326.763 36.024 324.907 35.304C323.051 34.584 321.475 33.576 320.179 32.28C318.883 30.984 317.891 29.44 317.203 27.648C316.515 25.856 316.171 23.888 316.171 21.744V1.032H324.283V21.72C324.283 22.952 324.435 24.056 324.739 25.032C325.059 25.992 325.515 26.816 326.107 27.504C326.699 28.176 327.419 28.696 328.267 29.064C329.131 29.416 330.107 29.592 331.195 29.592ZM383.084 1.032V36H378.86C378.236 36 377.708 35.904 377.276 35.712C376.86 35.504 376.444 35.152 376.028 34.656L359.54 13.8C359.604 14.424 359.644 15.032 359.66 15.624C359.692 16.2 359.708 16.744 359.708 17.256V36H352.556V1.032H356.828C357.18 1.032 357.476 1.048 357.716 1.08C357.956 1.112 358.172 1.176 358.364 1.272C358.556 1.352 358.74 1.472 358.916 1.632C359.092 1.792 359.292 2.008 359.516 2.28L376.148 23.28C376.068 22.608 376.012 21.96 375.98 21.336C375.948 20.696 375.932 20.096 375.932 19.536V1.032H383.084ZM421.596 18.504C421.596 21.032 421.156 23.368 420.276 25.512C419.412 27.64 418.188 29.488 416.604 31.056C415.02 32.608 413.108 33.824 410.868 34.704C408.644 35.568 406.172 36 403.452 36H389.868V1.032H403.452C406.172 1.032 408.644 1.472 410.868 2.352C413.108 3.232 415.02 4.448 416.604 6C418.188 7.552 419.412 9.4 420.276 11.544C421.156 13.672 421.596 15.992 421.596 18.504ZM413.292 18.504C413.292 16.776 413.068 15.216 412.62 13.824C412.172 12.432 411.524 11.256 410.676 10.296C409.844 9.32 408.82 8.576 407.604 8.064C406.388 7.536 405.004 7.272 403.452 7.272H398.028V29.76H403.452C405.004 29.76 406.388 29.504 407.604 28.992C408.82 28.464 409.844 27.72 410.676 26.76C411.524 25.784 412.172 24.6 412.62 23.208C413.068 21.816 413.292 20.248 413.292 18.504Z" fill="#1E1E1E"/>
<path d="M165.256 1.032V36H161.032C160.408 36 159.88 35.904 159.448 35.712C159.032 35.504 158.616 35.152 158.2 34.656L141.712 13.8C141.776 14.424 141.816 15.032 141.832 15.624C141.864 16.2 141.88 16.744 141.88 17.256V36H134.728V1.032H139C139.352 1.032 139.648 1.048 139.888 1.08C140.128 1.112 140.344 1.176 140.536 1.272C140.728 1.352 140.912 1.472 141.088 1.632C141.264 1.792 141.464 2.008 141.688 2.28L158.32 23.28C158.24 22.608 158.184 21.96 158.152 21.336C158.12 20.696 158.104 20.096 158.104 19.536V1.032H165.256ZM206.36 18.504C206.36 21.032 205.92 23.384 205.04 25.56C204.176 27.736 202.952 29.632 201.368 31.248C199.784 32.848 197.872 34.104 195.632 35.016C193.408 35.928 190.936 36.384 188.216 36.384C185.496 36.384 183.016 35.928 180.776 35.016C178.536 34.104 176.616 32.848 175.016 31.248C173.432 29.632 172.2 27.736 171.32 25.56C170.456 23.384 170.024 21.032 170.024 18.504C170.024 15.976 170.456 13.624 171.32 11.448C172.2 9.272 173.432 7.384 175.016 5.784C176.616 4.184 178.536 2.928 180.776 2.016C183.016 1.104 185.496 0.647999 188.216 0.647999C190.936 0.647999 193.408 1.112 195.632 2.04C197.872 2.952 199.784 4.208 201.368 5.808C202.952 7.408 204.176 9.296 205.04 11.472C205.92 13.648 206.36 15.992 206.36 18.504ZM198.056 18.504C198.056 16.776 197.832 15.224 197.384 13.848C196.936 12.456 196.288 11.28 195.44 10.32C194.608 9.36 193.584 8.624 192.368 8.112C191.152 7.6 189.768 7.344 188.216 7.344C186.648 7.344 185.248 7.6 184.016 8.112C182.8 8.624 181.768 9.36 180.92 10.32C180.088 11.28 179.448 12.456 179 13.848C178.552 15.224 178.328 16.776 178.328 18.504C178.328 20.248 178.552 21.816 179 23.208C179.448 24.584 180.088 25.752 180.92 26.712C181.768 27.672 182.8 28.408 184.016 28.92C185.248 29.416 186.648 29.664 188.216 29.664C189.768 29.664 191.152 29.416 192.368 28.92C193.584 28.408 194.608 27.672 195.44 26.712C196.288 25.752 196.936 24.584 197.384 23.208C197.832 21.816 198.056 20.248 198.056 18.504ZM235.418 7.464H225.578V36H217.466V7.464H207.626V1.032H235.418V7.464Z" fill="#FFE202"/>
</svg>
