<svg width="399" height="95" viewBox="0 0 399 95" fill="none" xmlns="http://www.w3.org/2000/svg">
<path d="M12.72 18.192C14.832 18.192 16.352 17.688 17.28 16.68C18.208 15.672 18.672 14.264 18.672 12.456C18.672 11.656 18.552 10.928 18.312 10.272C18.072 9.616 17.704 9.056 17.208 8.592C16.728 8.112 16.112 7.744 15.36 7.488C14.624 7.232 13.744 7.104 12.72 7.104H8.496V18.192H12.72ZM12.72 1.032C15.184 1.032 17.296 1.328 19.056 1.92C20.832 2.496 22.288 3.296 23.424 4.32C24.576 5.344 25.424 6.552 25.968 7.944C26.512 9.336 26.784 10.84 26.784 12.456C26.784 14.2 26.504 15.8 25.944 17.256C25.384 18.712 24.528 19.96 23.376 21C22.224 22.04 20.76 22.856 18.984 23.448C17.224 24.024 15.136 24.312 12.72 24.312H8.496V36H0.384V1.032H12.72ZM42.2756 17.472C43.3796 17.472 44.3156 17.336 45.0836 17.064C45.8676 16.776 46.5076 16.384 47.0036 15.888C47.4996 15.392 47.8596 14.816 48.0836 14.16C48.3076 13.488 48.4196 12.768 48.4196 12C48.4196 10.464 47.9156 9.264 46.9076 8.4C45.9156 7.536 44.3716 7.104 42.2756 7.104H39.0116V17.472H42.2756ZM59.5076 36H52.1636C50.8036 36 49.8276 35.488 49.2356 34.464L43.4276 24.312C43.1556 23.88 42.8516 23.568 42.5156 23.376C42.1796 23.168 41.6996 23.064 41.0756 23.064H39.0116V36H30.8996V1.032H42.2756C44.8036 1.032 46.9556 1.296 48.7316 1.824C50.5236 2.336 51.9796 3.056 53.0996 3.984C54.2356 4.912 55.0596 6.008 55.5716 7.272C56.0836 8.536 56.3396 9.912 56.3396 11.4C56.3396 12.536 56.1876 13.608 55.8836 14.616C55.5796 15.624 55.1316 16.56 54.5396 17.424C53.9476 18.272 53.2116 19.032 52.3316 19.704C51.4676 20.376 50.4676 20.928 49.3316 21.36C49.8596 21.632 50.3556 21.976 50.8196 22.392C51.2836 22.792 51.6996 23.272 52.0676 23.832L59.5076 36ZM70.6065 36H62.4465V1.032H70.6065V36ZM100.921 26.952C101.113 26.952 101.305 26.992 101.497 27.072C101.689 27.136 101.873 27.256 102.049 27.432L105.265 30.816C103.857 32.656 102.089 34.048 99.9608 34.992C97.8488 35.92 95.3448 36.384 92.4488 36.384C89.7928 36.384 87.4088 35.936 85.2968 35.04C83.2008 34.128 81.4168 32.88 79.9448 31.296C78.4888 29.696 77.3688 27.808 76.5848 25.632C75.8008 23.44 75.4088 21.064 75.4088 18.504C75.4088 15.896 75.8328 13.504 76.6808 11.328C77.5288 9.136 78.7208 7.248 80.2568 5.664C81.7928 4.08 83.6328 2.848 85.7768 1.968C87.9208 1.088 90.2808 0.647999 92.8568 0.647999C94.1688 0.647999 95.4008 0.767999 96.5528 1.008C97.7208 1.232 98.8088 1.552 99.8168 1.968C100.825 2.368 101.753 2.856 102.601 3.432C103.449 4.008 104.201 4.632 104.857 5.304L102.121 8.976C101.945 9.2 101.737 9.408 101.497 9.6C101.257 9.776 100.921 9.864 100.489 9.864C100.201 9.864 99.9288 9.8 99.6728 9.672C99.4168 9.544 99.1448 9.392 98.8568 9.216C98.5688 9.024 98.2488 8.824 97.8968 8.616C97.5608 8.392 97.1528 8.192 96.6728 8.016C96.2088 7.824 95.6568 7.664 95.0168 7.536C94.3928 7.408 93.6568 7.344 92.8088 7.344C91.4648 7.344 90.2328 7.592 89.1128 8.088C88.0088 8.584 87.0488 9.312 86.2328 10.272C85.4328 11.216 84.8088 12.384 84.3608 13.776C83.9288 15.152 83.7128 16.728 83.7128 18.504C83.7128 20.296 83.9528 21.888 84.4328 23.28C84.9288 24.672 85.5928 25.848 86.4248 26.808C87.2728 27.752 88.2568 28.472 89.3768 28.968C90.4968 29.464 91.6968 29.712 92.9768 29.712C93.7128 29.712 94.3848 29.68 94.9928 29.616C95.6008 29.536 96.1688 29.416 96.6968 29.256C97.2248 29.08 97.7208 28.856 98.1848 28.584C98.6488 28.296 99.1208 27.936 99.6008 27.504C99.7928 27.344 100.001 27.216 100.225 27.12C100.449 27.008 100.681 26.952 100.921 26.952ZM116.966 7.272V15.432H127.958V21.432H116.966V29.76H131.318V36H108.806V1.032H131.318V7.272H116.966ZM155.642 8.136C155.402 8.52 155.146 8.808 154.874 9C154.618 9.192 154.282 9.288 153.866 9.288C153.498 9.288 153.098 9.176 152.666 8.952C152.25 8.712 151.77 8.448 151.226 8.16C150.698 7.872 150.09 7.616 149.402 7.392C148.714 7.152 147.93 7.032 147.049 7.032C145.53 7.032 144.394 7.36 143.642 8.016C142.906 8.656 142.538 9.528 142.538 10.632C142.538 11.336 142.762 11.92 143.21 12.384C143.658 12.848 144.242 13.248 144.962 13.584C145.698 13.92 146.53 14.232 147.458 14.52C148.402 14.792 149.362 15.104 150.338 15.456C151.314 15.792 152.266 16.192 153.194 16.656C154.138 17.12 154.97 17.712 155.69 18.432C156.426 19.152 157.018 20.032 157.466 21.072C157.914 22.096 158.138 23.336 158.138 24.792C158.138 26.408 157.858 27.92 157.298 29.328C156.738 30.736 155.922 31.968 154.85 33.024C153.794 34.064 152.482 34.888 150.914 35.496C149.362 36.088 147.594 36.384 145.609 36.384C144.522 36.384 143.41 36.272 142.274 36.048C141.154 35.824 140.066 35.512 139.01 35.112C137.954 34.696 136.962 34.208 136.034 33.648C135.106 33.088 134.298 32.464 133.61 31.776L136.01 27.984C136.202 27.712 136.45 27.488 136.754 27.312C137.074 27.12 137.418 27.024 137.786 27.024C138.266 27.024 138.746 27.176 139.226 27.48C139.722 27.784 140.274 28.12 140.882 28.488C141.506 28.856 142.218 29.192 143.018 29.496C143.818 29.8 144.762 29.952 145.85 29.952C147.322 29.952 148.466 29.632 149.282 28.992C150.098 28.336 150.506 27.304 150.506 25.896C150.506 25.08 150.282 24.416 149.834 23.904C149.386 23.392 148.794 22.968 148.058 22.632C147.338 22.296 146.514 22 145.586 21.744C144.658 21.488 143.706 21.208 142.73 20.904C141.754 20.584 140.802 20.2 139.874 19.752C138.946 19.288 138.114 18.688 137.378 17.952C136.658 17.2 136.074 16.272 135.626 15.168C135.178 14.048 134.954 12.672 134.954 11.04C134.954 9.728 135.218 8.448 135.746 7.2C136.274 5.952 137.05 4.84 138.074 3.864C139.098 2.888 140.354 2.112 141.842 1.536C143.33 0.943998 145.034 0.647999 146.954 0.647999C148.026 0.647999 149.066 0.735999 150.074 0.912C151.098 1.072 152.066 1.32 152.978 1.656C153.89 1.976 154.738 2.368 155.522 2.832C156.322 3.28 157.034 3.792 157.658 4.368L155.642 8.136ZM39.696 59.032V94H32.544V73.888C32.544 73.424 32.552 72.92 32.568 72.376C32.6 71.832 32.648 71.28 32.712 70.72L23.424 88.696C23.136 89.256 22.744 89.68 22.248 89.968C21.768 90.256 21.216 90.4 20.592 90.4H19.488C18.864 90.4 18.304 90.256 17.808 89.968C17.328 89.68 16.944 89.256 16.656 88.696L7.368 70.672C7.416 71.248 7.456 71.816 7.488 72.376C7.52 72.92 7.536 73.424 7.536 73.888V94H0.384V59.032H6.576C6.928 59.032 7.232 59.04 7.488 59.056C7.76 59.072 8 59.12 8.208 59.2C8.416 59.28 8.6 59.408 8.76 59.584C8.936 59.744 9.104 59.976 9.264 60.28L18.264 78.016C18.584 78.624 18.888 79.256 19.176 79.912C19.48 80.568 19.768 81.24 20.04 81.928C20.312 81.224 20.592 80.536 20.88 79.864C21.184 79.192 21.504 78.552 21.84 77.944L30.816 60.28C30.976 59.976 31.136 59.744 31.296 59.584C31.472 59.408 31.664 59.28 31.872 59.2C32.08 59.12 32.312 59.072 32.568 59.056C32.84 59.04 33.152 59.032 33.504 59.032H39.696ZM64.9421 80.632L61.7021 71.056C61.4621 70.448 61.2061 69.736 60.9341 68.92C60.6621 68.088 60.3901 67.192 60.1181 66.232C59.8781 67.208 59.6221 68.112 59.3501 68.944C59.0781 69.776 58.8221 70.496 58.5821 71.104L55.3661 80.632H64.9421ZM77.8301 94H71.5421C70.8381 94 70.2701 93.84 69.8381 93.52C69.4061 93.184 69.0781 92.76 68.8541 92.248L66.7901 86.152H53.4941L51.4301 92.248C51.2541 92.696 50.9341 93.104 50.4701 93.472C50.0221 93.824 49.4621 94 48.7901 94H42.4541L55.9901 59.032H64.2941L77.8301 94ZM88.6991 73.192H89.9951C91.1951 73.192 92.0591 72.816 92.5871 72.064L100.459 60.64C100.923 60.032 101.419 59.616 101.947 59.392C102.491 59.152 103.163 59.032 103.963 59.032H111.019L100.651 73.168C99.9151 74.144 99.1231 74.848 98.2751 75.28C98.8831 75.504 99.4351 75.816 99.9311 76.216C100.427 76.616 100.891 77.136 101.323 77.776L111.883 94H104.635C104.171 94 103.771 93.968 103.435 93.904C103.115 93.84 102.835 93.744 102.595 93.616C102.355 93.488 102.147 93.336 101.971 93.16C101.795 92.968 101.627 92.752 101.467 92.512L93.5471 80.344C93.2591 79.896 92.8911 79.584 92.4431 79.408C92.0111 79.216 91.4191 79.12 90.6671 79.12H88.6991V94H80.5871V59.032H88.6991V73.192ZM122.638 65.272V73.432H133.63V79.432H122.638V87.76H136.99V94H114.478V59.032H136.99V65.272H122.638ZM167.839 80.704V94H159.727V80.704L147.055 59.032H154.207C154.911 59.032 155.463 59.2 155.863 59.536C156.279 59.856 156.623 60.272 156.895 60.784L161.839 70.96C162.255 71.76 162.631 72.512 162.967 73.216C163.303 73.904 163.599 74.584 163.855 75.256C164.095 74.568 164.367 73.88 164.671 73.192C164.991 72.488 165.359 71.744 165.775 70.96L170.671 60.784C170.783 60.576 170.919 60.368 171.079 60.16C171.239 59.952 171.423 59.768 171.631 59.608C171.855 59.432 172.103 59.296 172.375 59.2C172.663 59.088 172.975 59.032 173.311 59.032H180.511L167.839 80.704ZM215.36 76.504C215.36 79.032 214.92 81.384 214.04 83.56C213.176 85.736 211.952 87.632 210.368 89.248C208.784 90.848 206.872 92.104 204.632 93.016C202.408 93.928 199.936 94.384 197.216 94.384C194.496 94.384 192.016 93.928 189.776 93.016C187.536 92.104 185.616 90.848 184.016 89.248C182.432 87.632 181.2 85.736 180.32 83.56C179.456 81.384 179.024 79.032 179.024 76.504C179.024 73.976 179.456 71.624 180.32 69.448C181.2 67.272 182.432 65.384 184.016 63.784C185.616 62.184 187.536 60.928 189.776 60.016C192.016 59.104 194.496 58.648 197.216 58.648C199.936 58.648 202.408 59.112 204.632 60.04C206.872 60.952 208.784 62.208 210.368 63.808C211.952 65.408 213.176 67.296 214.04 69.472C214.92 71.648 215.36 73.992 215.36 76.504ZM207.056 76.504C207.056 74.776 206.832 73.224 206.384 71.848C205.936 70.456 205.288 69.28 204.44 68.32C203.608 67.36 202.584 66.624 201.368 66.112C200.152 65.6 198.768 65.344 197.216 65.344C195.648 65.344 194.248 65.6 193.016 66.112C191.8 66.624 190.768 67.36 189.92 68.32C189.088 69.28 188.448 70.456 188 71.848C187.552 73.224 187.328 74.776 187.328 76.504C187.328 78.248 187.552 79.816 188 81.208C188.448 82.584 189.088 83.752 189.92 84.712C190.768 85.672 191.8 86.408 193.016 86.92C194.248 87.416 195.648 87.664 197.216 87.664C198.768 87.664 200.152 87.416 201.368 86.92C202.584 86.408 203.608 85.672 204.44 84.712C205.288 83.752 205.936 82.584 206.384 81.208C206.832 79.816 207.056 78.248 207.056 76.504ZM234.726 87.592C235.814 87.592 236.782 87.416 237.63 87.064C238.494 86.696 239.222 86.176 239.814 85.504C240.406 84.832 240.854 84.016 241.158 83.056C241.478 82.08 241.638 80.976 241.638 79.744V59.032H249.75V79.744C249.75 81.888 249.398 83.856 248.694 85.648C248.006 87.44 247.014 88.984 245.718 90.28C244.422 91.576 242.846 92.584 240.99 93.304C239.134 94.024 237.046 94.384 234.726 94.384C232.39 94.384 230.294 94.024 228.438 93.304C226.582 92.584 225.006 91.576 223.71 90.28C222.414 88.984 221.422 87.44 220.734 85.648C220.046 83.856 219.702 81.888 219.702 79.744V59.032H227.814V79.72C227.814 80.952 227.966 82.056 228.27 83.032C228.59 83.992 229.046 84.816 229.638 85.504C230.23 86.176 230.95 86.696 231.798 87.064C232.662 87.416 233.638 87.592 234.726 87.592Z" fill="white"/>
<path d="M199.137 7.464H189.297V36H181.185V7.464H171.345V1.032H199.137V7.464ZM233.787 1.032V36H225.627V21.216H211.419V36H203.259V1.032H211.419V15.648H225.627V1.032H233.787ZM259.052 22.632L255.812 13.056C255.572 12.448 255.316 11.736 255.044 10.92C254.772 10.088 254.5 9.192 254.228 8.232C253.988 9.208 253.732 10.112 253.46 10.944C253.188 11.776 252.932 12.496 252.692 13.104L249.476 22.632H259.052ZM271.94 36H265.652C264.948 36 264.38 35.84 263.948 35.52C263.516 35.184 263.188 34.76 262.964 34.248L260.9 28.152H247.604L245.54 34.248C245.364 34.696 245.044 35.104 244.58 35.472C244.132 35.824 243.572 36 242.9 36H236.563L250.1 1.032H258.404L271.94 36ZM296.403 7.464H286.563V36H278.451V7.464H268.611V1.032H296.403V7.464ZM286.517 66.136C286.277 66.52 286.021 66.808 285.749 67C285.493 67.192 285.157 67.288 284.741 67.288C284.373 67.288 283.973 67.176 283.541 66.952C283.125 66.712 282.645 66.448 282.101 66.16C281.573 65.872 280.965 65.616 280.277 65.392C279.589 65.152 278.805 65.032 277.924 65.032C276.405 65.032 275.269 65.36 274.517 66.016C273.781 66.656 273.413 67.528 273.413 68.632C273.413 69.336 273.637 69.92 274.085 70.384C274.533 70.848 275.117 71.248 275.837 71.584C276.573 71.92 277.405 72.232 278.333 72.52C279.277 72.792 280.237 73.104 281.213 73.456C282.189 73.792 283.141 74.192 284.069 74.656C285.013 75.12 285.845 75.712 286.565 76.432C287.301 77.152 287.893 78.032 288.341 79.072C288.789 80.096 289.013 81.336 289.013 82.792C289.013 84.408 288.733 85.92 288.173 87.328C287.613 88.736 286.797 89.968 285.725 91.024C284.669 92.064 283.357 92.888 281.789 93.496C280.237 94.088 278.469 94.384 276.484 94.384C275.397 94.384 274.285 94.272 273.149 94.048C272.029 93.824 270.941 93.512 269.885 93.112C268.829 92.696 267.837 92.208 266.909 91.648C265.981 91.088 265.173 90.464 264.485 89.776L266.885 85.984C267.077 85.712 267.325 85.488 267.629 85.312C267.949 85.12 268.293 85.024 268.661 85.024C269.141 85.024 269.621 85.176 270.101 85.48C270.597 85.784 271.149 86.12 271.757 86.488C272.381 86.856 273.093 87.192 273.893 87.496C274.693 87.8 275.637 87.952 276.725 87.952C278.197 87.952 279.341 87.632 280.157 86.992C280.973 86.336 281.381 85.304 281.381 83.896C281.381 83.08 281.157 82.416 280.709 81.904C280.261 81.392 279.669 80.968 278.933 80.632C278.213 80.296 277.389 80 276.461 79.744C275.533 79.488 274.581 79.208 273.605 78.904C272.629 78.584 271.677 78.2 270.749 77.752C269.821 77.288 268.989 76.688 268.253 75.952C267.533 75.2 266.949 74.272 266.501 73.168C266.053 72.048 265.829 70.672 265.829 69.04C265.829 67.728 266.093 66.448 266.621 65.2C267.149 63.952 267.925 62.84 268.949 61.864C269.973 60.888 271.229 60.112 272.717 59.536C274.205 58.944 275.909 58.648 277.829 58.648C278.901 58.648 279.941 58.736 280.949 58.912C281.973 59.072 282.941 59.32 283.853 59.656C284.765 59.976 285.613 60.368 286.397 60.832C287.197 61.28 287.909 61.792 288.533 62.368L286.517 66.136ZM341.133 59.032L330.333 94H322.989L316.413 72.328C316.285 71.992 316.165 71.624 316.053 71.224C315.941 70.808 315.829 70.376 315.717 69.928C315.605 70.376 315.493 70.808 315.381 71.224C315.269 71.624 315.149 71.992 315.021 72.328L308.349 94H301.005L290.205 59.032H297.021C297.725 59.032 298.309 59.192 298.773 59.512C299.253 59.832 299.565 60.256 299.709 60.784L304.509 79.024C304.653 79.6 304.797 80.232 304.941 80.92C305.085 81.592 305.229 82.296 305.373 83.032C305.661 81.528 306.013 80.192 306.429 79.024L312.093 60.784C312.237 60.336 312.541 59.936 313.005 59.584C313.485 59.216 314.061 59.032 314.733 59.032H317.133C317.837 59.032 318.405 59.2 318.837 59.536C319.269 59.856 319.597 60.272 319.821 60.784L325.437 79.024C325.853 80.144 326.205 81.416 326.493 82.84C326.621 82.12 326.749 81.448 326.877 80.824C327.021 80.184 327.165 79.584 327.309 79.024L332.109 60.784C332.237 60.32 332.541 59.912 333.021 59.56C333.501 59.208 334.077 59.032 334.749 59.032H341.133ZM352.794 94H344.634V59.032H352.794V94ZM398.852 59.032V94H391.7V73.888C391.7 73.424 391.708 72.92 391.724 72.376C391.756 71.832 391.804 71.28 391.868 70.72L382.58 88.696C382.292 89.256 381.9 89.68 381.404 89.968C380.924 90.256 380.372 90.4 379.748 90.4H378.644C378.02 90.4 377.46 90.256 376.964 89.968C376.484 89.68 376.1 89.256 375.812 88.696L366.524 70.672C366.572 71.248 366.612 71.816 366.644 72.376C366.676 72.92 366.692 73.424 366.692 73.888V94H359.54V59.032H365.732C366.084 59.032 366.388 59.04 366.644 59.056C366.916 59.072 367.156 59.12 367.364 59.2C367.572 59.28 367.756 59.408 367.916 59.584C368.092 59.744 368.26 59.976 368.42 60.28L377.42 78.016C377.74 78.624 378.044 79.256 378.332 79.912C378.636 80.568 378.924 81.24 379.196 81.928C379.468 81.224 379.748 80.536 380.036 79.864C380.34 79.192 380.66 78.552 380.996 77.944L389.972 60.28C390.132 59.976 390.292 59.744 390.452 59.584C390.628 59.408 390.82 59.28 391.028 59.2C391.236 59.12 391.468 59.072 391.724 59.056C391.996 59.04 392.308 59.032 392.66 59.032H398.852Z" fill="#F0D402"/>
</svg>
