<svg width="509" height="37" viewBox="0 0 509 37" fill="none" xmlns="http://www.w3.org/2000/svg">
<path d="M21.344 7.608C21.152 7.944 20.944 8.192 20.72 8.352C20.512 8.496 20.248 8.568 19.928 8.568C19.592 8.568 19.224 8.448 18.824 8.208C18.44 7.952 17.976 7.672 17.432 7.368C16.888 7.064 16.248 6.792 15.512 6.552C14.792 6.296 13.936 6.168 12.944 6.168C12.048 6.168 11.264 6.28 10.592 6.504C9.92 6.712 9.352 7.008 8.888 7.392C8.44 7.776 8.104 8.24 7.88 8.784C7.656 9.312 7.544 9.896 7.544 10.536C7.544 11.352 7.768 12.032 8.216 12.576C8.68 13.12 9.288 13.584 10.04 13.968C10.792 14.352 11.648 14.696 12.608 15C13.568 15.304 14.552 15.632 15.56 15.984C16.568 16.32 17.552 16.72 18.512 17.184C19.472 17.632 20.328 18.208 21.08 18.912C21.832 19.6 22.432 20.448 22.88 21.456C23.344 22.464 23.576 23.688 23.576 25.128C23.576 26.696 23.304 28.168 22.76 29.544C22.232 30.904 21.448 32.096 20.408 33.12C19.384 34.128 18.128 34.928 16.64 35.52C15.152 36.096 13.448 36.384 11.528 36.384C10.424 36.384 9.336 36.272 8.264 36.048C7.192 35.84 6.16 35.536 5.168 35.136C4.192 34.736 3.272 34.256 2.408 33.696C1.544 33.136 0.776 32.512 0.104 31.824L2 28.728C2.16 28.504 2.368 28.32 2.624 28.176C2.88 28.016 3.152 27.936 3.44 27.936C3.84 27.936 4.272 28.104 4.736 28.44C5.2 28.76 5.752 29.12 6.392 29.52C7.032 29.92 7.776 30.288 8.624 30.624C9.488 30.944 10.52 31.104 11.72 31.104C13.56 31.104 14.984 30.672 15.992 29.808C17 28.928 17.504 27.672 17.504 26.04C17.504 25.128 17.272 24.384 16.808 23.808C16.36 23.232 15.76 22.752 15.008 22.368C14.256 21.968 13.4 21.632 12.44 21.36C11.48 21.088 10.504 20.792 9.512 20.472C8.52 20.152 7.544 19.768 6.584 19.32C5.624 18.872 4.768 18.288 4.016 17.568C3.264 16.848 2.656 15.952 2.192 14.88C1.744 13.792 1.52 12.456 1.52 10.872C1.52 9.608 1.768 8.376 2.264 7.176C2.776 5.976 3.512 4.912 4.472 3.984C5.432 3.056 6.616 2.312 8.024 1.752C9.432 1.192 11.048 0.912 12.872 0.912C14.92 0.912 16.808 1.232 18.536 1.872C20.264 2.512 21.736 3.408 22.952 4.56L21.344 7.608ZM75.1494 1.296L64.3734 36H58.5414L50.9574 12.288C50.7494 11.712 50.5574 11.008 50.3814 10.176C50.2854 10.576 50.1894 10.952 50.0934 11.304C49.9974 11.656 49.8934 11.984 49.7814 12.288L42.1254 36H36.2694L25.5174 1.296H30.9174C31.4774 1.296 31.9414 1.432 32.3094 1.704C32.6934 1.96 32.9494 2.312 33.0774 2.76L38.9814 23.52C39.1094 24.032 39.2294 24.592 39.3414 25.2C39.4694 25.792 39.5974 26.416 39.7254 27.072C39.8534 26.4 39.9894 25.768 40.1334 25.176C40.2934 24.584 40.4614 24.032 40.6374 23.52L47.4534 2.76C47.5814 2.392 47.8294 2.056 48.1974 1.752C48.5814 1.448 49.0454 1.296 49.5894 1.296H51.4854C52.0454 1.296 52.5014 1.432 52.8534 1.704C53.2054 1.976 53.4694 2.328 53.6454 2.76L60.4374 23.52C60.7734 24.512 61.0774 25.656 61.3494 26.952C61.5574 25.688 61.7894 24.544 62.0454 23.52L67.9494 2.76C68.0454 2.36 68.2854 2.016 68.6694 1.728C69.0694 1.44 69.5414 1.296 70.0854 1.296H75.1494ZM85.8909 36H79.4109V1.296H85.8909V36ZM131.293 1.296V36H125.605V13.584C125.605 12.688 125.653 11.72 125.749 10.68L115.261 30.384C114.765 31.328 114.005 31.8 112.981 31.8H112.069C111.045 31.8 110.285 31.328 109.789 30.384L99.1809 10.608C99.2289 11.136 99.2689 11.656 99.3009 12.168C99.3329 12.68 99.3489 13.152 99.3489 13.584V36H93.6609V1.296H98.5329C98.8209 1.296 99.0689 1.304 99.2769 1.32C99.4849 1.336 99.6689 1.376 99.8289 1.44C100.005 1.504 100.157 1.608 100.285 1.752C100.429 1.896 100.565 2.088 100.693 2.328L111.085 21.6C111.357 22.112 111.605 22.64 111.829 23.184C112.069 23.728 112.301 24.288 112.525 24.864C112.749 24.272 112.981 23.704 113.221 23.16C113.461 22.6 113.717 22.064 113.989 21.552L124.237 2.328C124.365 2.088 124.501 1.896 124.645 1.752C124.789 1.608 124.941 1.504 125.101 1.44C125.277 1.376 125.469 1.336 125.677 1.32C125.885 1.304 126.133 1.296 126.421 1.296H131.293ZM314.731 22.896L310.507 11.352C310.299 10.84 310.083 10.232 309.859 9.528C309.635 8.824 309.411 8.064 309.187 7.248C308.979 8.064 308.763 8.832 308.539 9.552C308.315 10.256 308.099 10.872 307.891 11.4L303.691 22.896H314.731ZM326.131 36H321.139C320.579 36 320.123 35.864 319.771 35.592C319.419 35.304 319.155 34.952 318.979 34.536L316.387 27.456H302.011L299.419 34.536C299.291 34.904 299.043 35.24 298.675 35.544C298.307 35.848 297.851 36 297.307 36H292.267L305.923 1.296H312.499L326.131 36ZM350.588 6.6H340.124V36H333.668V6.6H323.204V1.296H350.588V6.6ZM394.604 1.296V36H388.124V20.832H371.828V36H365.348V1.296H371.828V16.224H388.124V1.296H394.604ZM435.429 18.648C435.429 21.192 435.005 23.552 434.157 25.728C433.325 27.888 432.141 29.76 430.605 31.344C429.069 32.928 427.221 34.168 425.061 35.064C422.901 35.944 420.501 36.384 417.861 36.384C415.237 36.384 412.845 35.944 410.685 35.064C408.525 34.168 406.669 32.928 405.117 31.344C403.581 29.76 402.389 27.888 401.541 25.728C400.693 23.552 400.269 21.192 400.269 18.648C400.269 16.104 400.693 13.752 401.541 11.592C402.389 9.416 403.581 7.536 405.117 5.952C406.669 4.368 408.525 3.136 410.685 2.256C412.845 1.36 415.237 0.912 417.861 0.912C419.621 0.912 421.277 1.12 422.829 1.536C424.381 1.936 425.805 2.512 427.101 3.264C428.397 4 429.557 4.904 430.581 5.976C431.621 7.032 432.501 8.216 433.221 9.528C433.941 10.84 434.485 12.264 434.853 13.8C435.237 15.336 435.429 16.952 435.429 18.648ZM428.829 18.648C428.829 16.744 428.573 15.04 428.061 13.536C427.549 12.016 426.821 10.728 425.877 9.672C424.933 8.616 423.781 7.808 422.421 7.248C421.077 6.688 419.557 6.408 417.861 6.408C416.165 6.408 414.637 6.688 413.277 7.248C411.933 7.808 410.781 8.616 409.821 9.672C408.877 10.728 408.149 12.016 407.637 13.536C407.125 15.04 406.869 16.744 406.869 18.648C406.869 20.552 407.125 22.264 407.637 23.784C408.149 25.288 408.877 26.568 409.821 27.624C410.781 28.664 411.933 29.464 413.277 30.024C414.637 30.584 416.165 30.864 417.861 30.864C419.557 30.864 421.077 30.584 422.421 30.024C423.781 29.464 424.933 28.664 425.877 27.624C426.821 26.568 427.549 25.288 428.061 23.784C428.573 22.264 428.829 20.552 428.829 18.648ZM478.73 1.296V36H473.042V13.584C473.042 12.688 473.09 11.72 473.186 10.68L462.698 30.384C462.202 31.328 461.442 31.8 460.418 31.8H459.506C458.482 31.8 457.722 31.328 457.226 30.384L446.618 10.608C446.666 11.136 446.706 11.656 446.738 12.168C446.77 12.68 446.786 13.152 446.786 13.584V36H441.098V1.296H445.97C446.258 1.296 446.506 1.304 446.714 1.32C446.922 1.336 447.106 1.376 447.266 1.44C447.442 1.504 447.594 1.608 447.722 1.752C447.866 1.896 448.002 2.088 448.13 2.328L458.522 21.6C458.794 22.112 459.042 22.64 459.266 23.184C459.506 23.728 459.738 24.288 459.962 24.864C460.186 24.272 460.418 23.704 460.658 23.16C460.898 22.6 461.154 22.064 461.426 21.552L471.674 2.328C471.802 2.088 471.938 1.896 472.082 1.752C472.226 1.608 472.378 1.504 472.538 1.44C472.714 1.376 472.906 1.336 473.114 1.32C473.322 1.304 473.57 1.296 473.858 1.296H478.73ZM492.953 6.432V16.056H505.097V21.024H492.953V30.84H508.361V36H486.473V1.296H508.361V6.432H492.953Z" fill="white"/>
<path d="M149.524 17.808C150.74 17.808 151.796 17.656 152.692 17.352C153.604 17.048 154.348 16.632 154.924 16.104C155.516 15.56 155.956 14.92 156.244 14.184C156.532 13.448 156.676 12.64 156.676 11.76C156.676 10 156.092 8.648 154.924 7.704C153.772 6.76 152.004 6.288 149.62 6.288H145.492V17.808H149.524ZM166.132 36H160.3C159.196 36 158.396 35.568 157.9 34.704L150.604 23.592C150.332 23.176 150.028 22.88 149.692 22.704C149.372 22.528 148.892 22.44 148.252 22.44H145.492V36H139.036V1.296H149.62C151.972 1.296 153.988 1.544 155.668 2.04C157.364 2.52 158.748 3.2 159.82 4.08C160.908 4.96 161.708 6.016 162.22 7.248C162.732 8.464 162.988 9.808 162.988 11.28C162.988 12.448 162.812 13.552 162.46 14.592C162.124 15.632 161.628 16.576 160.972 17.424C160.332 18.272 159.532 19.016 158.572 19.656C157.628 20.296 156.548 20.8 155.332 21.168C155.748 21.408 156.132 21.696 156.484 22.032C156.836 22.352 157.156 22.736 157.444 23.184L166.132 36ZM176.36 36H169.88V1.296H176.36V36ZM212.738 18.6V32.64C210.978 33.936 209.098 34.888 207.098 35.496C205.114 36.088 202.986 36.384 200.714 36.384C197.882 36.384 195.314 35.944 193.01 35.064C190.722 34.184 188.762 32.96 187.13 31.392C185.514 29.824 184.266 27.952 183.386 25.776C182.506 23.6 182.066 21.224 182.066 18.648C182.066 16.04 182.49 13.648 183.338 11.472C184.186 9.296 185.386 7.424 186.938 5.856C188.506 4.288 190.402 3.072 192.626 2.208C194.85 1.344 197.346 0.912 200.114 0.912C201.522 0.912 202.834 1.024 204.05 1.248C205.282 1.472 206.418 1.784 207.458 2.184C208.514 2.568 209.474 3.04 210.338 3.6C211.202 4.16 211.994 4.776 212.714 5.448L210.866 8.376C210.578 8.84 210.202 9.128 209.738 9.24C209.274 9.336 208.77 9.216 208.226 8.88C207.698 8.576 207.17 8.272 206.642 7.968C206.114 7.664 205.522 7.4 204.866 7.176C204.226 6.952 203.498 6.768 202.682 6.624C201.882 6.48 200.954 6.408 199.898 6.408C198.186 6.408 196.634 6.696 195.242 7.272C193.866 7.848 192.69 8.672 191.714 9.744C190.738 10.816 189.986 12.104 189.458 13.608C188.93 15.112 188.666 16.792 188.666 18.648C188.666 20.632 188.946 22.408 189.506 23.976C190.082 25.528 190.882 26.848 191.906 27.936C192.946 29.008 194.194 29.832 195.65 30.408C197.106 30.968 198.73 31.248 200.522 31.248C201.802 31.248 202.946 31.112 203.954 30.84C204.962 30.568 205.946 30.2 206.906 29.736V23.448H202.538C202.122 23.448 201.794 23.336 201.554 23.112C201.33 22.872 201.218 22.584 201.218 22.248V18.6H212.738ZM248.214 1.296V36H241.734V20.832H225.438V36H218.958V1.296H225.438V16.224H241.734V1.296H248.214ZM280.182 6.6H269.718V36H263.262V6.6H252.798V1.296H280.182V6.6Z" fill="#F0D402"/>
</svg>
