<svg width="612" height="126" viewBox="0 0 612 126" fill="none" xmlns="http://www.w3.org/2000/svg">
<path d="M45.408 39.272C44.928 40.04 44.416 40.616 43.872 41C43.36 41.384 42.688 41.576 41.856 41.576C41.12 41.576 40.32 41.352 39.456 40.904C38.624 40.424 37.664 39.896 36.576 39.32C35.52 38.744 34.304 38.232 32.928 37.784C31.552 37.304 29.984 37.064 28.224 37.064C25.184 37.064 22.912 37.72 21.408 39.032C19.936 40.312 19.2 42.056 19.2 44.264C19.2 45.672 19.648 46.84 20.544 47.768C21.44 48.696 22.608 49.496 24.048 50.168C25.52 50.84 27.184 51.464 29.04 52.04C30.928 52.584 32.848 53.208 34.8 53.912C36.752 54.584 38.656 55.384 40.512 56.312C42.4 57.24 44.064 58.424 45.504 59.864C46.976 61.304 48.16 63.064 49.056 65.144C49.952 67.192 50.4 69.672 50.4 72.584C50.4 75.816 49.84 78.84 48.72 81.656C47.6 84.472 45.968 86.936 43.824 89.048C41.712 91.128 39.088 92.776 35.952 93.992C32.848 95.176 29.312 95.768 25.344 95.768C23.168 95.768 20.944 95.544 18.672 95.096C16.432 94.648 14.256 94.024 12.144 93.224C10.032 92.392 8.048 91.416 6.192 90.296C4.336 89.176 2.72 87.928 1.344 86.552L6.144 78.968C6.528 78.424 7.024 77.976 7.632 77.624C8.272 77.24 8.96 77.048 9.696 77.048C10.656 77.048 11.616 77.352 12.576 77.96C13.568 78.568 14.672 79.24 15.888 79.976C17.136 80.712 18.56 81.384 20.16 81.992C21.76 82.6 23.648 82.904 25.824 82.904C28.768 82.904 31.056 82.264 32.688 80.984C34.32 79.672 35.136 77.608 35.136 74.792C35.136 73.16 34.688 71.832 33.792 70.808C32.896 69.784 31.712 68.936 30.24 68.264C28.8 67.592 27.152 67 25.296 66.488C23.44 65.976 21.536 65.416 19.584 64.808C17.632 64.168 15.728 63.4 13.872 62.504C12.016 61.576 10.352 60.376 8.88 58.904C7.44 57.4 6.272 55.544 5.376 53.336C4.48 51.096 4.032 48.344 4.032 45.08C4.032 42.456 4.56 39.896 5.616 37.4C6.672 34.904 8.224 32.68 10.272 30.728C12.32 28.776 14.832 27.224 17.808 26.072C20.784 24.888 24.192 24.296 28.032 24.296C30.176 24.296 32.256 24.472 34.272 24.824C36.32 25.144 38.256 25.64 40.08 26.312C41.904 26.952 43.6 27.736 45.168 28.664C46.768 29.56 48.192 30.584 49.44 31.736L45.408 39.272ZM154.642 25.064L133.042 95H118.354L105.202 51.656C104.946 50.984 104.706 50.248 104.482 49.448C104.258 48.616 104.034 47.752 103.81 46.856C103.586 47.752 103.362 48.616 103.138 49.448C102.914 50.248 102.674 50.984 102.418 51.656L89.0738 95H74.3858L52.7858 25.064H66.4178C67.8258 25.064 68.9938 25.384 69.9218 26.024C70.8818 26.664 71.5058 27.512 71.7938 28.568L81.3938 65.048C81.6818 66.2 81.9698 67.464 82.2578 68.84C82.5458 70.184 82.8338 71.592 83.1218 73.064C83.6978 70.056 84.4018 67.384 85.2338 65.048L96.5618 28.568C96.8498 27.672 97.4578 26.872 98.3858 26.168C99.3458 25.432 100.498 25.064 101.842 25.064H106.642C108.05 25.064 109.186 25.4 110.05 26.072C110.914 26.712 111.57 27.544 112.018 28.568L123.25 65.048C124.082 67.288 124.786 69.832 125.362 72.68C125.618 71.24 125.874 69.896 126.13 68.648C126.418 67.368 126.706 66.168 126.994 65.048L136.594 28.568C136.85 27.64 137.458 26.824 138.418 26.12C139.378 25.416 140.53 25.064 141.874 25.064H154.642ZM177.963 95H161.643V25.064H177.963V95ZM270.08 25.064V95H255.776V54.776C255.776 53.848 255.792 52.84 255.824 51.752C255.888 50.664 255.984 49.56 256.112 48.44L237.536 84.392C236.96 85.512 236.176 86.36 235.184 86.936C234.224 87.512 233.12 87.8 231.872 87.8H229.664C228.416 87.8 227.296 87.512 226.304 86.936C225.344 86.36 224.576 85.512 224 84.392L205.424 48.344C205.52 49.496 205.6 50.632 205.664 51.752C205.728 52.84 205.76 53.848 205.76 54.776V95H191.456V25.064H203.84C204.544 25.064 205.152 25.08 205.664 25.112C206.208 25.144 206.688 25.24 207.104 25.4C207.52 25.56 207.888 25.816 208.208 26.168C208.56 26.488 208.896 26.952 209.216 27.56L227.216 63.032C227.856 64.248 228.464 65.512 229.04 66.824C229.648 68.136 230.224 69.48 230.768 70.856C231.312 69.448 231.872 68.072 232.448 66.728C233.056 65.384 233.696 64.104 234.368 62.888L252.32 27.56C252.64 26.952 252.96 26.488 253.28 26.168C253.632 25.816 254.016 25.56 254.432 25.4C254.848 25.24 255.312 25.144 255.824 25.112C256.368 25.08 256.992 25.064 257.696 25.064H270.08Z" fill="#1E1E1E"/>
<path d="M306.364 57.944C308.572 57.944 310.444 57.672 311.98 57.128C313.548 56.552 314.828 55.768 315.82 54.776C316.812 53.784 317.532 52.632 317.98 51.32C318.428 49.976 318.652 48.536 318.652 47C318.652 43.928 317.644 41.528 315.628 39.8C313.644 38.072 310.556 37.208 306.364 37.208H299.836V57.944H306.364ZM340.828 95H326.14C323.42 95 321.468 93.976 320.284 91.928L308.668 71.624C308.124 70.76 307.516 70.136 306.844 69.752C306.172 69.336 305.212 69.128 303.964 69.128H299.836V95H283.612V25.064H306.364C311.42 25.064 315.724 25.592 319.276 26.648C322.86 27.672 325.772 29.112 328.012 30.968C330.284 32.824 331.932 35.016 332.956 37.544C333.98 40.072 334.492 42.824 334.492 45.8C334.492 48.072 334.188 50.216 333.58 52.232C332.972 54.248 332.076 56.12 330.892 57.848C329.708 59.544 328.236 61.064 326.476 62.408C324.748 63.752 322.748 64.856 320.476 65.72C321.532 66.264 322.524 66.952 323.452 67.784C324.38 68.584 325.212 69.544 325.948 70.664L340.828 95ZM363.026 95H346.706V25.064H363.026V95ZM410.118 58.76H434.982V88.28C431.398 90.904 427.574 92.808 423.51 93.992C419.478 95.176 415.254 95.768 410.838 95.768C405.078 95.768 399.83 94.872 395.094 93.08C390.39 91.256 386.358 88.76 382.998 85.592C379.638 82.392 377.046 78.616 375.222 74.264C373.398 69.88 372.486 65.128 372.486 60.008C372.486 54.792 373.35 50.008 375.078 45.656C376.806 41.272 379.27 37.496 382.47 34.328C385.702 31.16 389.59 28.696 394.134 26.936C398.71 25.176 403.814 24.296 409.446 24.296C412.358 24.296 415.094 24.536 417.654 25.016C420.214 25.496 422.566 26.152 424.71 26.984C426.886 27.816 428.87 28.808 430.662 29.96C432.454 31.112 434.054 32.36 435.462 33.704L430.758 40.856C430.022 41.976 429.062 42.664 427.878 42.92C426.726 43.176 425.478 42.888 424.134 42.056C422.854 41.288 421.638 40.632 420.486 40.088C419.366 39.512 418.214 39.048 417.03 38.696C415.846 38.344 414.598 38.088 413.286 37.928C411.974 37.768 410.502 37.688 408.87 37.688C405.83 37.688 403.094 38.232 400.662 39.32C398.23 40.376 396.15 41.88 394.422 43.832C392.726 45.784 391.414 48.136 390.486 50.888C389.558 53.608 389.094 56.648 389.094 60.008C389.094 63.72 389.606 67.016 390.63 69.896C391.654 72.776 393.094 75.208 394.95 77.192C396.838 79.176 399.078 80.696 401.67 81.752C404.294 82.776 407.19 83.288 410.358 83.288C412.31 83.288 414.07 83.096 415.638 82.712C417.238 82.328 418.79 81.816 420.294 81.176V70.568H413.382C412.358 70.568 411.558 70.296 410.982 69.752C410.406 69.208 410.118 68.52 410.118 67.688V58.76ZM506.949 25.064V95H490.629V65.432H462.213V95H445.893V25.064H462.213V54.296H490.629V25.064H506.949ZM570.774 37.928H551.094V95H534.87V37.928H515.19V25.064H570.774V37.928Z" fill="#FFE203"/>
<rect x="161" y="61" width="17" height="65" fill="#FFE202"/>
</svg>
