<svg width="305" height="95" viewBox="0 0 305 95" fill="none" xmlns="http://www.w3.org/2000/svg">
<path d="M28.512 7.464H18.672V36H10.56V7.464H0.72V1.032H28.512V7.464ZM40.794 7.272V15.432H51.786V21.432H40.794V29.76H55.146V36H32.634V1.032H55.146V7.272H40.794ZM71.5256 17.472C72.6296 17.472 73.5656 17.336 74.3336 17.064C75.1176 16.776 75.7576 16.384 76.2536 15.888C76.7496 15.392 77.1096 14.816 77.3336 14.16C77.5576 13.488 77.6696 12.768 77.6696 12C77.6696 10.464 77.1656 9.264 76.1576 8.4C75.1656 7.536 73.6216 7.104 71.5256 7.104H68.2616V17.472H71.5256ZM88.7576 36H81.4136C80.0536 36 79.0776 35.488 78.4856 34.464L72.6776 24.312C72.4056 23.88 72.1016 23.568 71.7656 23.376C71.4296 23.168 70.9496 23.064 70.3256 23.064H68.2616V36H60.1496V1.032H71.5256C74.0536 1.032 76.2056 1.296 77.9816 1.824C79.7736 2.336 81.2296 3.056 82.3496 3.984C83.4856 4.912 84.3096 6.008 84.8216 7.272C85.3336 8.536 85.5896 9.912 85.5896 11.4C85.5896 12.536 85.4376 13.608 85.1336 14.616C84.8296 15.624 84.3816 16.56 83.7896 17.424C83.1976 18.272 82.4616 19.032 81.5816 19.704C80.7176 20.376 79.7176 20.928 78.5816 21.36C79.1096 21.632 79.6056 21.976 80.0696 22.392C80.5336 22.792 80.9496 23.272 81.3176 23.832L88.7576 36ZM131.009 1.032V36H123.857V15.888C123.857 15.424 123.865 14.92 123.881 14.376C123.913 13.832 123.961 13.28 124.025 12.72L114.737 30.696C114.449 31.256 114.057 31.68 113.561 31.968C113.081 32.256 112.529 32.4 111.905 32.4H110.801C110.177 32.4 109.617 32.256 109.121 31.968C108.641 31.68 108.257 31.256 107.969 30.696L98.6805 12.672C98.7285 13.248 98.7685 13.816 98.8005 14.376C98.8325 14.92 98.8485 15.424 98.8485 15.888V36H91.6965V1.032H97.8885C98.2405 1.032 98.5445 1.04 98.8005 1.056C99.0725 1.072 99.3125 1.12 99.5205 1.2C99.7285 1.28 99.9125 1.408 100.073 1.584C100.249 1.744 100.417 1.976 100.577 2.28L109.577 20.016C109.897 20.624 110.201 21.256 110.489 21.912C110.793 22.568 111.081 23.24 111.353 23.928C111.625 23.224 111.905 22.536 112.193 21.864C112.497 21.192 112.817 20.552 113.153 19.944L122.129 2.28C122.289 1.976 122.449 1.744 122.609 1.584C122.785 1.408 122.977 1.28 123.185 1.2C123.393 1.12 123.625 1.072 123.881 1.056C124.153 1.04 124.465 1.032 124.817 1.032H131.009ZM157.095 8.136C156.855 8.52 156.599 8.808 156.327 9C156.071 9.192 155.735 9.288 155.319 9.288C154.951 9.288 154.551 9.176 154.119 8.952C153.703 8.712 153.223 8.448 152.679 8.16C152.151 7.872 151.543 7.616 150.855 7.392C150.167 7.152 149.383 7.032 148.503 7.032C146.983 7.032 145.847 7.36 145.095 8.016C144.359 8.656 143.991 9.528 143.991 10.632C143.991 11.336 144.215 11.92 144.663 12.384C145.111 12.848 145.695 13.248 146.415 13.584C147.151 13.92 147.983 14.232 148.911 14.52C149.855 14.792 150.815 15.104 151.791 15.456C152.767 15.792 153.719 16.192 154.647 16.656C155.591 17.12 156.423 17.712 157.143 18.432C157.879 19.152 158.471 20.032 158.919 21.072C159.367 22.096 159.591 23.336 159.591 24.792C159.591 26.408 159.311 27.92 158.751 29.328C158.191 30.736 157.375 31.968 156.303 33.024C155.247 34.064 153.935 34.888 152.367 35.496C150.815 36.088 149.047 36.384 147.063 36.384C145.975 36.384 144.863 36.272 143.727 36.048C142.607 35.824 141.519 35.512 140.463 35.112C139.407 34.696 138.415 34.208 137.487 33.648C136.559 33.088 135.751 32.464 135.063 31.776L137.463 27.984C137.655 27.712 137.903 27.488 138.207 27.312C138.527 27.12 138.871 27.024 139.239 27.024C139.719 27.024 140.199 27.176 140.679 27.48C141.175 27.784 141.727 28.12 142.335 28.488C142.959 28.856 143.671 29.192 144.471 29.496C145.271 29.8 146.215 29.952 147.303 29.952C148.775 29.952 149.919 29.632 150.735 28.992C151.551 28.336 151.959 27.304 151.959 25.896C151.959 25.08 151.735 24.416 151.287 23.904C150.839 23.392 150.247 22.968 149.511 22.632C148.791 22.296 147.967 22 147.039 21.744C146.111 21.488 145.159 21.208 144.183 20.904C143.207 20.584 142.255 20.2 141.327 19.752C140.399 19.288 139.567 18.688 138.831 17.952C138.111 17.2 137.527 16.272 137.079 15.168C136.631 14.048 136.407 12.672 136.407 11.04C136.407 9.728 136.671 8.448 137.199 7.2C137.727 5.952 138.503 4.84 139.527 3.864C140.551 2.888 141.807 2.112 143.295 1.536C144.783 0.943998 146.487 0.647999 148.407 0.647999C149.479 0.647999 150.519 0.735999 151.527 0.912C152.551 1.072 153.519 1.32 154.431 1.656C155.343 1.976 156.191 2.368 156.975 2.832C157.775 3.28 158.487 3.792 159.111 4.368L157.095 8.136ZM26.952 84.952C27.144 84.952 27.336 84.992 27.528 85.072C27.72 85.136 27.904 85.256 28.08 85.432L31.296 88.816C29.888 90.656 28.12 92.048 25.992 92.992C23.88 93.92 21.376 94.384 18.48 94.384C15.824 94.384 13.44 93.936 11.328 93.04C9.232 92.128 7.448 90.88 5.976 89.296C4.52 87.696 3.4 85.808 2.616 83.632C1.832 81.44 1.44 79.064 1.44 76.504C1.44 73.896 1.864 71.504 2.712 69.328C3.56 67.136 4.752 65.248 6.288 63.664C7.824 62.08 9.664 60.848 11.808 59.968C13.952 59.088 16.312 58.648 18.888 58.648C20.2 58.648 21.432 58.768 22.584 59.008C23.752 59.232 24.84 59.552 25.848 59.968C26.856 60.368 27.784 60.856 28.632 61.432C29.48 62.008 30.232 62.632 30.888 63.304L28.152 66.976C27.976 67.2 27.768 67.408 27.528 67.6C27.288 67.776 26.952 67.864 26.52 67.864C26.232 67.864 25.96 67.8 25.704 67.672C25.448 67.544 25.176 67.392 24.888 67.216C24.6 67.024 24.28 66.824 23.928 66.616C23.592 66.392 23.184 66.192 22.704 66.016C22.24 65.824 21.688 65.664 21.048 65.536C20.424 65.408 19.688 65.344 18.84 65.344C17.496 65.344 16.264 65.592 15.144 66.088C14.04 66.584 13.08 67.312 12.264 68.272C11.464 69.216 10.84 70.384 10.392 71.776C9.96 73.152 9.744 74.728 9.744 76.504C9.744 78.296 9.984 79.888 10.464 81.28C10.96 82.672 11.624 83.848 12.456 84.808C13.304 85.752 14.288 86.472 15.408 86.968C16.528 87.464 17.728 87.712 19.008 87.712C19.744 87.712 20.416 87.68 21.024 87.616C21.632 87.536 22.2 87.416 22.728 87.256C23.256 87.08 23.752 86.856 24.216 86.584C24.68 86.296 25.152 85.936 25.632 85.504C25.824 85.344 26.032 85.216 26.256 85.12C26.48 85.008 26.712 84.952 26.952 84.952ZM68.3603 76.504C68.3603 79.032 67.9203 81.384 67.0403 83.56C66.1763 85.736 64.9523 87.632 63.3683 89.248C61.7843 90.848 59.8723 92.104 57.6323 93.016C55.4083 93.928 52.9363 94.384 50.2163 94.384C47.4963 94.384 45.0163 93.928 42.7762 93.016C40.5363 92.104 38.6163 90.848 37.0163 89.248C35.4323 87.632 34.2003 85.736 33.3203 83.56C32.4563 81.384 32.0243 79.032 32.0243 76.504C32.0243 73.976 32.4563 71.624 33.3203 69.448C34.2003 67.272 35.4323 65.384 37.0163 63.784C38.6163 62.184 40.5363 60.928 42.7762 60.016C45.0163 59.104 47.4963 58.648 50.2163 58.648C52.9363 58.648 55.4083 59.112 57.6323 60.04C59.8723 60.952 61.7843 62.208 63.3683 63.808C64.9523 65.408 66.1763 67.296 67.0403 69.472C67.9203 71.648 68.3603 73.992 68.3603 76.504ZM60.0563 76.504C60.0563 74.776 59.8323 73.224 59.3843 71.848C58.9363 70.456 58.2883 69.28 57.4403 68.32C56.6083 67.36 55.5843 66.624 54.3683 66.112C53.1523 65.6 51.7683 65.344 50.2163 65.344C48.6483 65.344 47.2483 65.6 46.0163 66.112C44.8003 66.624 43.7683 67.36 42.9203 68.32C42.0883 69.28 41.4483 70.456 41.0003 71.848C40.5523 73.224 40.3283 74.776 40.3283 76.504C40.3283 78.248 40.5523 79.816 41.0003 81.208C41.4483 82.584 42.0883 83.752 42.9203 84.712C43.7683 85.672 44.8003 86.408 46.0163 86.92C47.2483 87.416 48.6483 87.664 50.2163 87.664C51.7683 87.664 53.1523 87.416 54.3683 86.92C55.5843 86.408 56.6083 85.672 57.4403 84.712C58.2883 83.752 58.9363 82.584 59.3843 81.208C59.8323 79.816 60.0563 78.248 60.0563 76.504ZM103.662 59.032V94H99.438C98.814 94 98.286 93.904 97.854 93.712C97.438 93.504 97.022 93.152 96.606 92.656L80.118 71.8C80.182 72.424 80.222 73.032 80.238 73.624C80.27 74.2 80.286 74.744 80.286 75.256V94H73.134V59.032H77.406C77.758 59.032 78.054 59.048 78.294 59.08C78.534 59.112 78.75 59.176 78.942 59.272C79.134 59.352 79.318 59.472 79.494 59.632C79.67 59.792 79.87 60.008 80.094 60.28L96.726 81.28C96.646 80.608 96.59 79.96 96.558 79.336C96.526 78.696 96.51 78.096 96.51 77.536V59.032H103.662ZM142.175 76.504C142.175 79.032 141.735 81.368 140.855 83.512C139.991 85.64 138.767 87.488 137.183 89.056C135.599 90.608 133.687 91.824 131.447 92.704C129.223 93.568 126.751 94 124.031 94H110.447V59.032H124.031C126.751 59.032 129.223 59.472 131.447 60.352C133.687 61.232 135.599 62.448 137.183 64C138.767 65.552 139.991 67.4 140.855 69.544C141.735 71.672 142.175 73.992 142.175 76.504ZM133.871 76.504C133.871 74.776 133.647 73.216 133.199 71.824C132.751 70.432 132.103 69.256 131.255 68.296C130.423 67.32 129.399 66.576 128.183 66.064C126.967 65.536 125.583 65.272 124.031 65.272H118.607V87.76H124.031C125.583 87.76 126.967 87.504 128.183 86.992C129.399 86.464 130.423 85.72 131.255 84.76C132.103 83.784 132.751 82.6 133.199 81.208C133.647 79.816 133.871 78.248 133.871 76.504ZM155.122 94H146.962V59.032H155.122V94ZM186.996 65.464H177.156V94H169.044V65.464H159.204V59.032H186.996V65.464ZM199.278 94H191.118V59.032H199.278V94ZM240.345 76.504C240.345 79.032 239.905 81.384 239.025 83.56C238.161 85.736 236.937 87.632 235.353 89.248C233.769 90.848 231.857 92.104 229.617 93.016C227.393 93.928 224.921 94.384 222.201 94.384C219.481 94.384 217.001 93.928 214.761 93.016C212.521 92.104 210.601 90.848 209.001 89.248C207.417 87.632 206.185 85.736 205.305 83.56C204.441 81.384 204.009 79.032 204.009 76.504C204.009 73.976 204.441 71.624 205.305 69.448C206.185 67.272 207.417 65.384 209.001 63.784C210.601 62.184 212.521 60.928 214.761 60.016C217.001 59.104 219.481 58.648 222.201 58.648C224.921 58.648 227.393 59.112 229.617 60.04C231.857 60.952 233.769 62.208 235.353 63.808C236.937 65.408 238.161 67.296 239.025 69.472C239.905 71.648 240.345 73.992 240.345 76.504ZM232.041 76.504C232.041 74.776 231.817 73.224 231.369 71.848C230.921 70.456 230.273 69.28 229.425 68.32C228.593 67.36 227.569 66.624 226.353 66.112C225.137 65.6 223.753 65.344 222.201 65.344C220.633 65.344 219.233 65.6 218.001 66.112C216.785 66.624 215.753 67.36 214.905 68.32C214.073 69.28 213.433 70.456 212.985 71.848C212.537 73.224 212.313 74.776 212.313 76.504C212.313 78.248 212.537 79.816 212.985 81.208C213.433 82.584 214.073 83.752 214.905 84.712C215.753 85.672 216.785 86.408 218.001 86.92C219.233 87.416 220.633 87.664 222.201 87.664C223.753 87.664 225.137 87.416 226.353 86.92C227.569 86.408 228.593 85.672 229.425 84.712C230.273 83.752 230.921 82.584 231.369 81.208C231.817 79.816 232.041 78.248 232.041 76.504ZM275.646 59.032V94H271.422C270.798 94 270.27 93.904 269.838 93.712C269.422 93.504 269.006 93.152 268.59 92.656L252.102 71.8C252.166 72.424 252.206 73.032 252.222 73.624C252.254 74.2 252.27 74.744 252.27 75.256V94H245.118V59.032H249.39C249.742 59.032 250.038 59.048 250.278 59.08C250.518 59.112 250.734 59.176 250.926 59.272C251.118 59.352 251.302 59.472 251.478 59.632C251.654 59.792 251.854 60.008 252.078 60.28L268.71 81.28C268.63 80.608 268.574 79.96 268.542 79.336C268.51 78.696 268.494 78.096 268.494 77.536V59.032H275.646ZM301.751 66.136C301.511 66.52 301.255 66.808 300.983 67C300.727 67.192 300.391 67.288 299.975 67.288C299.607 67.288 299.207 67.176 298.775 66.952C298.359 66.712 297.879 66.448 297.335 66.16C296.807 65.872 296.199 65.616 295.511 65.392C294.823 65.152 294.039 65.032 293.159 65.032C291.639 65.032 290.503 65.36 289.751 66.016C289.015 66.656 288.647 67.528 288.647 68.632C288.647 69.336 288.871 69.92 289.319 70.384C289.767 70.848 290.351 71.248 291.071 71.584C291.807 71.92 292.639 72.232 293.567 72.52C294.511 72.792 295.471 73.104 296.447 73.456C297.423 73.792 298.375 74.192 299.303 74.656C300.247 75.12 301.079 75.712 301.799 76.432C302.535 77.152 303.127 78.032 303.575 79.072C304.023 80.096 304.247 81.336 304.247 82.792C304.247 84.408 303.967 85.92 303.407 87.328C302.847 88.736 302.031 89.968 300.959 91.024C299.903 92.064 298.591 92.888 297.023 93.496C295.471 94.088 293.703 94.384 291.719 94.384C290.631 94.384 289.519 94.272 288.383 94.048C287.263 93.824 286.175 93.512 285.119 93.112C284.063 92.696 283.071 92.208 282.143 91.648C281.215 91.088 280.407 90.464 279.719 89.776L282.119 85.984C282.311 85.712 282.559 85.488 282.863 85.312C283.183 85.12 283.527 85.024 283.895 85.024C284.375 85.024 284.855 85.176 285.335 85.48C285.831 85.784 286.383 86.12 286.991 86.488C287.615 86.856 288.327 87.192 289.127 87.496C289.927 87.8 290.871 87.952 291.959 87.952C293.431 87.952 294.575 87.632 295.391 86.992C296.207 86.336 296.615 85.304 296.615 83.896C296.615 83.08 296.391 82.416 295.943 81.904C295.495 81.392 294.903 80.968 294.167 80.632C293.447 80.296 292.623 80 291.695 79.744C290.767 79.488 289.815 79.208 288.839 78.904C287.863 78.584 286.911 78.2 285.983 77.752C285.055 77.288 284.223 76.688 283.487 75.952C282.767 75.2 282.183 74.272 281.735 73.168C281.287 72.048 281.063 70.672 281.063 69.04C281.063 67.728 281.327 66.448 281.855 65.2C282.383 63.952 283.159 62.84 284.183 61.864C285.207 60.888 286.463 60.112 287.951 59.536C289.439 58.944 291.143 58.648 293.063 58.648C294.135 58.648 295.175 58.736 296.183 58.912C297.207 59.072 298.175 59.32 299.087 59.656C299.999 59.976 300.847 60.368 301.631 60.832C302.431 61.28 303.143 61.792 303.767 62.368L301.751 66.136Z" fill="white"/>
<path d="M193.942 22.632L190.702 13.056C190.462 12.448 190.206 11.736 189.934 10.92C189.662 10.088 189.39 9.192 189.118 8.232C188.878 9.208 188.622 10.112 188.35 10.944C188.078 11.776 187.822 12.496 187.582 13.104L184.366 22.632H193.942ZM206.83 36H200.542C199.838 36 199.27 35.84 198.838 35.52C198.406 35.184 198.078 34.76 197.854 34.248L195.79 28.152H182.494L180.43 34.248C180.254 34.696 179.934 35.104 179.47 35.472C179.022 35.824 178.462 36 177.79 36H171.454L184.99 1.032H193.294L206.83 36ZM240.115 1.032V36H235.891C235.267 36 234.739 35.904 234.307 35.712C233.891 35.504 233.475 35.152 233.059 34.656L216.571 13.8C216.635 14.424 216.675 15.032 216.691 15.624C216.723 16.2 216.739 16.744 216.739 17.256V36H209.587V1.032H213.859C214.211 1.032 214.507 1.048 214.747 1.08C214.987 1.112 215.203 1.176 215.395 1.272C215.587 1.352 215.771 1.472 215.947 1.632C216.123 1.792 216.323 2.008 216.547 2.28L233.179 23.28C233.099 22.608 233.043 21.96 233.011 21.336C232.979 20.696 232.963 20.096 232.963 19.536V1.032H240.115ZM278.628 18.504C278.628 21.032 278.188 23.368 277.308 25.512C276.444 27.64 275.22 29.488 273.636 31.056C272.052 32.608 270.14 33.824 267.9 34.704C265.676 35.568 263.204 36 260.484 36H246.9V1.032H260.484C263.204 1.032 265.676 1.472 267.9 2.352C270.14 3.232 272.052 4.448 273.636 6C275.22 7.552 276.444 9.4 277.308 11.544C278.188 13.672 278.628 15.992 278.628 18.504ZM270.324 18.504C270.324 16.776 270.1 15.216 269.652 13.824C269.204 12.432 268.556 11.256 267.708 10.296C266.876 9.32 265.852 8.576 264.636 8.064C263.42 7.536 262.036 7.272 260.484 7.272H255.06V29.76H260.484C262.036 29.76 263.42 29.504 264.636 28.992C265.852 28.464 266.876 27.72 267.708 26.76C268.556 25.784 269.204 24.6 269.652 23.208C270.1 21.816 270.324 20.248 270.324 18.504Z" fill="#FFE202"/>
</svg>
