<svg width="543" height="362" viewBox="0 0 543 362" fill="none" xmlns="http://www.w3.org/2000/svg">
<path d="M27.848 45.272V63H17.032V45.272L0.136 16.376H9.672C10.6107 16.376 11.3467 16.6 11.88 17.048C12.4347 17.4747 12.8933 18.0293 13.256 18.712L19.848 32.28C20.4027 33.3467 20.904 34.3493 21.352 35.288C21.8 36.2053 22.1947 37.112 22.536 38.008C22.856 37.0907 23.2187 36.1733 23.624 35.256C24.0507 34.3173 24.5413 33.3253 25.096 32.28L31.624 18.712C31.7733 18.4347 31.9547 18.1573 32.168 17.88C32.3813 17.6027 32.6267 17.3573 32.904 17.144C33.2027 16.9093 33.5333 16.728 33.896 16.6C34.28 16.4507 34.696 16.376 35.144 16.376H44.744L27.848 45.272ZM91.2095 39.672C91.2095 43.0427 90.6228 46.1787 89.4495 49.08C88.2975 51.9813 86.6655 54.5093 84.5535 56.664C82.4415 58.7973 79.8922 60.472 76.9055 61.688C73.9402 62.904 70.6442 63.512 67.0175 63.512C63.3908 63.512 60.0842 62.904 57.0975 61.688C54.1108 60.472 51.5508 58.7973 49.4175 56.664C47.3055 54.5093 45.6628 51.9813 44.4895 49.08C43.3375 46.1787 42.7615 43.0427 42.7615 39.672C42.7615 36.3013 43.3375 33.1653 44.4895 30.264C45.6628 27.3627 47.3055 24.8453 49.4175 22.712C51.5508 20.5787 54.1108 18.904 57.0975 17.688C60.0842 16.472 63.3908 15.864 67.0175 15.864C70.6442 15.864 73.9402 16.4827 76.9055 17.72C79.8922 18.936 82.4415 20.6107 84.5535 22.744C86.6655 24.8773 88.2975 27.3947 89.4495 30.296C90.6228 33.1973 91.2095 36.3227 91.2095 39.672ZM80.1375 39.672C80.1375 37.368 79.8388 35.2987 79.2415 33.464C78.6442 31.608 77.7802 30.04 76.6495 28.76C75.5402 27.48 74.1748 26.4987 72.5535 25.816C70.9322 25.1333 69.0868 24.792 67.0175 24.792C64.9268 24.792 63.0602 25.1333 61.4175 25.816C59.7962 26.4987 58.4202 27.48 57.2895 28.76C56.1802 30.04 55.3268 31.608 54.7295 33.464C54.1322 35.2987 53.8335 37.368 53.8335 39.672C53.8335 41.9973 54.1322 44.088 54.7295 45.944C55.3268 47.7787 56.1802 49.336 57.2895 50.616C58.4202 51.896 59.7962 52.8773 61.4175 53.56C63.0602 54.2213 64.9268 54.552 67.0175 54.552C69.0868 54.552 70.9322 54.2213 72.5535 53.56C74.1748 52.8773 75.5402 51.896 76.6495 50.616C77.7802 49.336 78.6442 47.7787 79.2415 45.944C79.8388 44.088 80.1375 41.9973 80.1375 39.672ZM117.031 54.456C118.481 54.456 119.772 54.2213 120.903 53.752C122.055 53.2613 123.025 52.568 123.815 51.672C124.604 50.776 125.201 49.688 125.607 48.408C126.033 47.1067 126.247 45.6347 126.247 43.992V16.376H137.063V43.992C137.063 46.8507 136.593 49.4747 135.655 51.864C134.737 54.2533 133.415 56.312 131.687 58.04C129.959 59.768 127.857 61.112 125.382 62.072C122.908 63.032 120.124 63.512 117.031 63.512C113.916 63.512 111.121 63.032 108.647 62.072C106.172 61.112 104.071 59.768 102.343 58.04C100.615 56.312 99.2918 54.2533 98.3745 51.864C97.4572 49.4747 96.9985 46.8507 96.9985 43.992V16.376H107.815V43.96C107.815 45.6027 108.017 47.0747 108.423 48.376C108.849 49.656 109.457 50.7547 110.247 51.672C111.036 52.568 111.996 53.2613 113.127 53.752C114.279 54.2213 115.58 54.456 117.031 54.456ZM160.68 38.296C162.152 38.296 163.4 38.1147 164.424 37.752C165.469 37.368 166.323 36.8453 166.984 36.184C167.645 35.5227 168.125 34.7547 168.424 33.88C168.723 32.984 168.872 32.024 168.872 31C168.872 28.952 168.2 27.352 166.856 26.2C165.533 25.048 163.475 24.472 160.68 24.472H156.328V38.296H160.68ZM183.656 63H173.864C172.051 63 170.749 62.3173 169.96 60.952L162.216 47.416C161.853 46.84 161.448 46.424 161 46.168C160.552 45.8907 159.912 45.752 159.08 45.752H156.328V63H145.512V16.376H160.68C164.051 16.376 166.92 16.728 169.288 17.432C171.677 18.1147 173.619 19.0747 175.112 20.312C176.627 21.5493 177.725 23.0107 178.408 24.696C179.091 26.3813 179.432 28.216 179.432 30.2C179.432 31.7147 179.229 33.144 178.824 34.488C178.419 35.832 177.821 37.08 177.032 38.232C176.243 39.3627 175.261 40.376 174.088 41.272C172.936 42.168 171.603 42.904 170.088 43.48C170.792 43.8427 171.453 44.3013 172.072 44.856C172.691 45.3893 173.245 46.0293 173.736 46.776L183.656 63ZM31.272 256.848C30.952 257.36 30.6107 257.744 30.248 258C29.9067 258.256 29.4587 258.384 28.904 258.384C28.4133 258.384 27.88 258.235 27.304 257.936C26.7493 257.616 26.1093 257.264 25.384 256.88C24.68 256.496 23.8693 256.155 22.952 255.856C22.0347 255.536 20.9893 255.376 19.816 255.376C17.7893 255.376 16.2747 255.813 15.272 256.688C14.2907 257.541 13.8 258.704 13.8 260.176C13.8 261.115 14.0987 261.893 14.696 262.512C15.2933 263.131 16.072 263.664 17.032 264.112C18.0133 264.56 19.1227 264.976 20.36 265.36C21.6187 265.723 22.8987 266.139 24.2 266.608C25.5013 267.056 26.7707 267.589 28.008 268.208C29.2667 268.827 30.376 269.616 31.336 270.576C32.3173 271.536 33.1067 272.709 33.704 274.096C34.3013 275.461 34.6 277.115 34.6 279.056C34.6 281.211 34.2267 283.227 33.48 285.104C32.7333 286.981 31.6453 288.624 30.216 290.032C28.808 291.419 27.0587 292.517 24.968 293.328C22.8987 294.117 20.5413 294.512 17.896 294.512C16.4453 294.512 14.9627 294.363 13.448 294.064C11.9547 293.765 10.504 293.349 9.096 292.816C7.688 292.261 6.36533 291.611 5.128 290.864C3.89067 290.117 2.81333 289.285 1.896 288.368L5.096 283.312C5.352 282.949 5.68267 282.651 6.088 282.416C6.51467 282.16 6.97333 282.032 7.464 282.032C8.104 282.032 8.744 282.235 9.384 282.64C10.0453 283.045 10.7813 283.493 11.592 283.984C12.424 284.475 13.3733 284.923 14.44 285.328C15.5067 285.733 16.7653 285.936 18.216 285.936C20.1787 285.936 21.704 285.509 22.792 284.656C23.88 283.781 24.424 282.405 24.424 280.528C24.424 279.44 24.1253 278.555 23.528 277.872C22.9307 277.189 22.1413 276.624 21.16 276.176C20.2 275.728 19.1013 275.333 17.864 274.992C16.6267 274.651 15.3573 274.277 14.056 273.872C12.7547 273.445 11.4853 272.933 10.248 272.336C9.01067 271.717 7.90133 270.917 6.92 269.936C5.96 268.933 5.18133 267.696 4.584 266.224C3.98667 264.731 3.688 262.896 3.688 260.72C3.688 258.971 4.04 257.264 4.744 255.6C5.448 253.936 6.48267 252.453 7.848 251.152C9.21333 249.851 10.888 248.816 12.872 248.048C14.856 247.259 17.128 246.864 19.688 246.864C21.1173 246.864 22.504 246.981 23.848 247.216C25.2133 247.429 26.504 247.76 27.72 248.208C28.936 248.635 30.0667 249.157 31.112 249.776C32.1787 250.373 33.128 251.056 33.96 251.824L31.272 256.848ZM74.4535 255.952H61.3335V294H50.5175V255.952H37.3975V247.376H74.4535V255.952ZM100.027 276.176L95.707 263.408C95.387 262.597 95.0457 261.648 94.683 260.56C94.3203 259.451 93.9577 258.256 93.595 256.976C93.275 258.277 92.9337 259.483 92.571 260.592C92.2083 261.701 91.867 262.661 91.547 263.472L87.259 276.176H100.027ZM117.211 294H108.827C107.888 294 107.131 293.787 106.555 293.36C105.979 292.912 105.542 292.347 105.243 291.664L102.491 283.536H84.763L82.011 291.664C81.7763 292.261 81.3497 292.805 80.731 293.296C80.1337 293.765 79.387 294 78.491 294H70.043L88.091 247.376H99.163L117.211 294ZM136.055 269.296C137.527 269.296 138.775 269.115 139.799 268.752C140.844 268.368 141.698 267.845 142.359 267.184C143.02 266.523 143.5 265.755 143.799 264.88C144.098 263.984 144.247 263.024 144.247 262C144.247 259.952 143.575 258.352 142.231 257.2C140.908 256.048 138.85 255.472 136.055 255.472H131.703V269.296H136.055ZM159.031 294H149.239C147.426 294 146.124 293.317 145.335 291.952L137.591 278.416C137.228 277.84 136.823 277.424 136.375 277.168C135.927 276.891 135.287 276.752 134.455 276.752H131.703V294H120.887V247.376H136.055C139.426 247.376 142.295 247.728 144.663 248.432C147.052 249.115 148.994 250.075 150.487 251.312C152.002 252.549 153.1 254.011 153.783 255.696C154.466 257.381 154.807 259.216 154.807 261.2C154.807 262.715 154.604 264.144 154.199 265.488C153.794 266.832 153.196 268.08 152.407 269.232C151.618 270.363 150.636 271.376 149.463 272.272C148.311 273.168 146.978 273.904 145.463 274.48C146.167 274.843 146.828 275.301 147.447 275.856C148.066 276.389 148.62 277.029 149.111 277.776L159.031 294ZM195.516 255.952H182.396V294H171.58V255.952H158.46V247.376H195.516V255.952ZM226.772 256.848C226.452 257.36 226.111 257.744 225.748 258C225.407 258.256 224.959 258.384 224.404 258.384C223.913 258.384 223.38 258.235 222.804 257.936C222.249 257.616 221.609 257.264 220.884 256.88C220.18 256.496 219.369 256.155 218.452 255.856C217.535 255.536 216.489 255.376 215.316 255.376C213.289 255.376 211.775 255.813 210.772 256.688C209.791 257.541 209.3 258.704 209.3 260.176C209.3 261.115 209.599 261.893 210.196 262.512C210.793 263.131 211.572 263.664 212.532 264.112C213.513 264.56 214.623 264.976 215.86 265.36C217.119 265.723 218.399 266.139 219.7 266.608C221.001 267.056 222.271 267.589 223.508 268.208C224.767 268.827 225.876 269.616 226.836 270.576C227.817 271.536 228.607 272.709 229.204 274.096C229.801 275.461 230.1 277.115 230.1 279.056C230.1 281.211 229.727 283.227 228.98 285.104C228.233 286.981 227.145 288.624 225.716 290.032C224.308 291.419 222.559 292.517 220.468 293.328C218.399 294.117 216.041 294.512 213.396 294.512C211.945 294.512 210.463 294.363 208.948 294.064C207.455 293.765 206.004 293.349 204.596 292.816C203.188 292.261 201.865 291.611 200.628 290.864C199.391 290.117 198.313 289.285 197.396 288.368L200.596 283.312C200.852 282.949 201.183 282.651 201.588 282.416C202.015 282.16 202.473 282.032 202.964 282.032C203.604 282.032 204.244 282.235 204.884 282.64C205.545 283.045 206.281 283.493 207.092 283.984C207.924 284.475 208.873 284.923 209.94 285.328C211.007 285.733 212.265 285.936 213.716 285.936C215.679 285.936 217.204 285.509 218.292 284.656C219.38 283.781 219.924 282.405 219.924 280.528C219.924 279.44 219.625 278.555 219.028 277.872C218.431 277.189 217.641 276.624 216.66 276.176C215.7 275.728 214.601 275.333 213.364 274.992C212.127 274.651 210.857 274.277 209.556 273.872C208.255 273.445 206.985 272.933 205.748 272.336C204.511 271.717 203.401 270.917 202.42 269.936C201.46 268.933 200.681 267.696 200.084 266.224C199.487 264.731 199.188 262.896 199.188 260.72C199.188 258.971 199.54 257.264 200.244 255.6C200.948 253.936 201.983 252.453 203.348 251.152C204.713 249.851 206.388 248.816 208.372 248.048C210.356 247.259 212.628 246.864 215.188 246.864C216.617 246.864 218.004 246.981 219.348 247.216C220.713 247.429 222.004 247.76 223.22 248.208C224.436 248.635 225.567 249.157 226.612 249.776C227.679 250.373 228.628 251.056 229.46 251.824L226.772 256.848ZM291.966 247.376V294H281.086V274.288H262.142V294H251.262V247.376H262.142V266.864H281.086V247.376H291.966ZM311.892 255.696V266.576H326.548V274.576H311.892V285.68H331.028V294H301.012V247.376H331.028V255.696H311.892ZM352.868 269.296C354.34 269.296 355.588 269.115 356.612 268.752C357.657 268.368 358.51 267.845 359.172 267.184C359.833 266.523 360.313 265.755 360.612 264.88C360.91 263.984 361.06 263.024 361.06 262C361.06 259.952 360.388 258.352 359.044 257.2C357.721 256.048 355.662 255.472 352.868 255.472H348.516V269.296H352.868ZM375.844 294H366.052C364.238 294 362.937 293.317 362.148 291.952L354.404 278.416C354.041 277.84 353.636 277.424 353.188 277.168C352.74 276.891 352.1 276.752 351.267 276.752H348.516V294H337.7V247.376H352.868C356.238 247.376 359.108 247.728 361.476 248.432C363.865 249.115 365.806 250.075 367.3 251.312C368.814 252.549 369.913 254.011 370.596 255.696C371.278 257.381 371.62 259.216 371.62 261.2C371.62 262.715 371.417 264.144 371.012 265.488C370.606 266.832 370.009 268.08 369.22 269.232C368.43 270.363 367.449 271.376 366.276 272.272C365.124 273.168 363.79 273.904 362.276 274.48C362.98 274.843 363.641 275.301 364.26 275.856C364.878 276.389 365.433 277.029 365.924 277.776L375.844 294ZM390.642 255.696V266.576H405.298V274.576H390.642V285.68H409.778V294H379.762V247.376H409.778V255.696H390.642Z" fill="white"/>
<path d="M31.272 102.848C30.952 103.36 30.6107 103.744 30.248 104C29.9067 104.256 29.4587 104.384 28.904 104.384C28.4133 104.384 27.88 104.235 27.304 103.936C26.7493 103.616 26.1093 103.264 25.384 102.88C24.68 102.496 23.8693 102.155 22.952 101.856C22.0347 101.536 20.9893 101.376 19.816 101.376C17.7893 101.376 16.2747 101.813 15.272 102.688C14.2907 103.541 13.8 104.704 13.8 106.176C13.8 107.115 14.0987 107.893 14.696 108.512C15.2933 109.131 16.072 109.664 17.032 110.112C18.0133 110.56 19.1227 110.976 20.36 111.36C21.6187 111.723 22.8987 112.139 24.2 112.608C25.5013 113.056 26.7707 113.589 28.008 114.208C29.2667 114.827 30.376 115.616 31.336 116.576C32.3173 117.536 33.1067 118.709 33.704 120.096C34.3013 121.461 34.6 123.115 34.6 125.056C34.6 127.211 34.2267 129.227 33.48 131.104C32.7333 132.981 31.6453 134.624 30.216 136.032C28.808 137.419 27.0587 138.517 24.968 139.328C22.8987 140.117 20.5413 140.512 17.896 140.512C16.4453 140.512 14.9627 140.363 13.448 140.064C11.9547 139.765 10.504 139.349 9.096 138.816C7.688 138.261 6.36533 137.611 5.128 136.864C3.89067 136.117 2.81333 135.285 1.896 134.368L5.096 129.312C5.352 128.949 5.68267 128.651 6.088 128.416C6.51467 128.16 6.97333 128.032 7.464 128.032C8.104 128.032 8.744 128.235 9.384 128.64C10.0453 129.045 10.7813 129.493 11.592 129.984C12.424 130.475 13.3733 130.923 14.44 131.328C15.5067 131.733 16.7653 131.936 18.216 131.936C20.1787 131.936 21.704 131.509 22.792 130.656C23.88 129.781 24.424 128.405 24.424 126.528C24.424 125.44 24.1253 124.555 23.528 123.872C22.9307 123.189 22.1413 122.624 21.16 122.176C20.2 121.728 19.1013 121.333 17.864 120.992C16.6267 120.651 15.3573 120.277 14.056 119.872C12.7547 119.445 11.4853 118.933 10.248 118.336C9.01067 117.717 7.90133 116.917 6.92 115.936C5.96 114.933 5.18133 113.696 4.584 112.224C3.98667 110.731 3.688 108.896 3.688 106.72C3.688 104.971 4.04 103.264 4.744 101.6C5.448 99.936 6.48267 98.4533 7.848 97.152C9.21333 95.8507 10.888 94.816 12.872 94.048C14.856 93.2587 17.128 92.864 19.688 92.864C21.1173 92.864 22.504 92.9813 23.848 93.216C25.2133 93.4293 26.504 93.76 27.72 94.208C28.936 94.6347 30.0667 95.1573 31.112 95.776C32.1787 96.3733 33.128 97.056 33.96 97.824L31.272 102.848ZM104.095 93.376L89.6945 140H79.9025L71.1345 111.104C70.9638 110.656 70.8038 110.165 70.6545 109.632C70.5052 109.077 70.3558 108.501 70.2065 107.904C70.0572 108.501 69.9078 109.077 69.7585 109.632C69.6092 110.165 69.4492 110.656 69.2785 111.104L60.3825 140H50.5905L36.1905 93.376H45.2785C46.2172 93.376 46.9958 93.5893 47.6145 94.016C48.2545 94.4427 48.6705 95.008 48.8625 95.712L55.2625 120.032C55.4545 120.8 55.6465 121.643 55.8385 122.56C56.0305 123.456 56.2225 124.395 56.4145 125.376C56.7985 123.371 57.2678 121.589 57.8225 120.032L65.3745 95.712C65.5665 95.1147 65.9718 94.5813 66.5905 94.112C67.2305 93.6213 67.9985 93.376 68.8945 93.376H72.0945C73.0332 93.376 73.7905 93.6 74.3665 94.048C74.9425 94.4747 75.3798 95.0293 75.6785 95.712L83.1665 120.032C83.7212 121.525 84.1905 123.221 84.5745 125.12C84.7452 124.16 84.9158 123.264 85.0865 122.432C85.2785 121.579 85.4705 120.779 85.6625 120.032L92.0625 95.712C92.2332 95.0933 92.6385 94.5493 93.2785 94.08C93.9185 93.6107 94.6865 93.376 95.5825 93.376H104.095ZM119.642 140H108.762V93.376H119.642V140ZM181.053 93.376V140H171.517V113.184C171.517 112.565 171.528 111.893 171.549 111.168C171.592 110.443 171.656 109.707 171.741 108.96L159.357 132.928C158.973 133.675 158.45 134.24 157.789 134.624C157.149 135.008 156.413 135.2 155.581 135.2H154.109C153.277 135.2 152.53 135.008 151.869 134.624C151.229 134.24 150.717 133.675 150.333 132.928L137.949 108.896C138.013 109.664 138.066 110.421 138.109 111.168C138.152 111.893 138.173 112.565 138.173 113.184V140H128.637V93.376H136.893C137.362 93.376 137.768 93.3867 138.109 93.408C138.472 93.4293 138.792 93.4933 139.069 93.6C139.346 93.7067 139.592 93.8773 139.805 94.112C140.04 94.3253 140.264 94.6347 140.477 95.04L152.477 118.688C152.904 119.499 153.309 120.341 153.693 121.216C154.098 122.091 154.482 122.987 154.845 123.904C155.208 122.965 155.581 122.048 155.965 121.152C156.37 120.256 156.797 119.403 157.245 118.592L169.213 95.04C169.426 94.6347 169.64 94.3253 169.853 94.112C170.088 93.8773 170.344 93.7067 170.621 93.6C170.898 93.4933 171.208 93.4293 171.549 93.408C171.912 93.3867 172.328 93.376 172.797 93.376H181.053ZM205.243 115.296C206.715 115.296 207.963 115.115 208.987 114.752C210.032 114.368 210.885 113.845 211.547 113.184C212.208 112.523 212.688 111.755 212.987 110.88C213.285 109.984 213.435 109.024 213.435 108C213.435 105.952 212.763 104.352 211.419 103.2C210.096 102.048 208.037 101.472 205.243 101.472H200.891V115.296H205.243ZM228.219 140H218.427C216.613 140 215.312 139.317 214.523 137.952L206.779 124.416C206.416 123.84 206.011 123.424 205.562 123.168C205.115 122.891 204.475 122.752 203.642 122.752H200.891V140H190.075V93.376H205.243C208.613 93.376 211.483 93.728 213.851 94.432C216.24 95.1147 218.181 96.0747 219.675 97.312C221.189 98.5493 222.288 100.011 222.971 101.696C223.653 103.381 223.995 105.216 223.995 107.2C223.995 108.715 223.792 110.144 223.387 111.488C222.981 112.832 222.384 114.08 221.595 115.232C220.805 116.363 219.824 117.376 218.651 118.272C217.499 119.168 216.165 119.904 214.651 120.48C215.355 120.843 216.016 121.301 216.635 121.856C217.253 122.389 217.808 123.029 218.299 123.776L228.219 140ZM243.017 140H232.137V93.376H243.017V140ZM274.412 115.84H290.988V135.52C288.599 137.269 286.049 138.539 283.34 139.328C280.652 140.117 277.836 140.512 274.892 140.512C271.052 140.512 267.553 139.915 264.396 138.72C261.26 137.504 258.572 135.84 256.332 133.728C254.092 131.595 252.364 129.077 251.148 126.176C249.932 123.253 249.324 120.085 249.324 116.672C249.324 113.195 249.9 110.005 251.052 107.104C252.204 104.181 253.847 101.664 255.98 99.552C258.135 97.44 260.727 95.7973 263.756 94.624C266.807 93.4507 270.209 92.864 273.964 92.864C275.905 92.864 277.729 93.024 279.436 93.344C281.143 93.664 282.711 94.1013 284.14 94.656C285.591 95.2107 286.913 95.872 288.108 96.64C289.303 97.408 290.369 98.24 291.308 99.136L288.172 103.904C287.681 104.651 287.041 105.109 286.252 105.28C285.484 105.451 284.652 105.259 283.756 104.704C282.903 104.192 282.092 103.755 281.324 103.392C280.577 103.008 279.809 102.699 279.02 102.464C278.231 102.229 277.399 102.059 276.524 101.952C275.649 101.845 274.668 101.792 273.58 101.792C271.553 101.792 269.729 102.155 268.108 102.88C266.487 103.584 265.1 104.587 263.948 105.888C262.817 107.189 261.943 108.757 261.324 110.592C260.705 112.405 260.396 114.432 260.396 116.672C260.396 119.147 260.737 121.344 261.42 123.264C262.103 125.184 263.063 126.805 264.3 128.128C265.559 129.451 267.052 130.464 268.78 131.168C270.529 131.851 272.46 132.192 274.572 132.192C275.873 132.192 277.047 132.064 278.092 131.808C279.159 131.552 280.193 131.211 281.196 130.784V123.712H276.588C275.905 123.712 275.372 123.531 274.988 123.168C274.604 122.805 274.412 122.347 274.412 121.792V115.84ZM338.966 93.376V140H328.086V120.288H309.142V140H298.262V93.376H309.142V112.864H328.086V93.376H338.966ZM381.516 101.952H368.396V140H357.58V101.952H344.46V93.376H381.516V101.952ZM24.808 200.104C24.808 202.707 24.4773 205.075 23.816 207.208C23.176 209.341 22.1947 211.176 20.872 212.712C19.5707 214.227 17.928 215.411 15.944 216.264C13.96 217.096 11.624 217.512 8.936 217.512C7.72 217.512 6.51467 217.448 5.32 217.32C4.14667 217.192 2.92 216.979 1.64 216.68L2.216 210.376C2.28 209.821 2.504 209.373 2.888 209.032C3.272 208.691 3.816 208.52 4.52 208.52C4.88267 208.52 5.33067 208.584 5.864 208.712C6.39733 208.819 7.03733 208.872 7.784 208.872C8.82933 208.872 9.736 208.733 10.504 208.456C11.2933 208.157 11.944 207.677 12.456 207.016C12.968 206.333 13.352 205.448 13.608 204.36C13.864 203.272 13.992 201.928 13.992 200.328V170.376H24.808V200.104ZM79.147 193.672C79.147 197.043 78.5603 200.179 77.387 203.08C76.235 205.981 74.603 208.509 72.491 210.664C70.379 212.797 67.8297 214.472 64.843 215.688C61.8777 216.904 58.5817 217.512 54.955 217.512C51.3283 217.512 48.0217 216.904 45.035 215.688C42.0483 214.472 39.4883 212.797 37.355 210.664C35.243 208.509 33.6003 205.981 32.427 203.08C31.275 200.179 30.699 197.043 30.699 193.672C30.699 190.301 31.275 187.165 32.427 184.264C33.6003 181.363 35.243 178.845 37.355 176.712C39.4883 174.579 42.0483 172.904 45.035 171.688C48.0217 170.472 51.3283 169.864 54.955 169.864C58.5817 169.864 61.8777 170.483 64.843 171.72C67.8297 172.936 70.379 174.611 72.491 176.744C74.603 178.877 76.235 181.395 77.387 184.296C78.5603 187.197 79.147 190.323 79.147 193.672ZM68.075 193.672C68.075 191.368 67.7763 189.299 67.179 187.464C66.5817 185.608 65.7177 184.04 64.587 182.76C63.4777 181.48 62.1123 180.499 60.491 179.816C58.8697 179.133 57.0243 178.792 54.955 178.792C52.8643 178.792 50.9977 179.133 49.355 179.816C47.7337 180.499 46.3577 181.48 45.227 182.76C44.1177 184.04 43.2643 185.608 42.667 187.464C42.0697 189.299 41.771 191.368 41.771 193.672C41.771 195.997 42.0697 198.088 42.667 199.944C43.2643 201.779 44.1177 203.336 45.227 204.616C46.3577 205.896 47.7337 206.877 49.355 207.56C50.9977 208.221 52.8643 208.552 54.955 208.552C57.0243 208.552 58.8697 208.221 60.491 207.56C62.1123 206.877 63.4777 205.896 64.587 204.616C65.7177 203.336 66.5817 201.779 67.179 199.944C67.7763 198.088 68.075 195.997 68.075 193.672ZM104.968 208.456C106.419 208.456 107.709 208.221 108.84 207.752C109.992 207.261 110.963 206.568 111.752 205.672C112.541 204.776 113.139 203.688 113.544 202.408C113.971 201.107 114.184 199.635 114.184 197.992V170.376H125V197.992C125 200.851 124.531 203.475 123.592 205.864C122.675 208.253 121.352 210.312 119.624 212.04C117.896 213.768 115.795 215.112 113.32 216.072C110.845 217.032 108.061 217.512 104.968 217.512C101.853 217.512 99.0587 217.032 96.584 216.072C94.1093 215.112 92.008 213.768 90.28 212.04C88.552 210.312 87.2293 208.253 86.312 205.864C85.3947 203.475 84.936 200.851 84.936 197.992V170.376H95.752V197.96C95.752 199.603 95.9547 201.075 96.36 202.376C96.7867 203.656 97.3947 204.755 98.184 205.672C98.9733 206.568 99.9333 207.261 101.064 207.752C102.216 208.221 103.517 208.456 104.968 208.456ZM148.618 192.296C150.09 192.296 151.338 192.115 152.362 191.752C153.407 191.368 154.26 190.845 154.922 190.184C155.583 189.523 156.063 188.755 156.362 187.88C156.66 186.984 156.81 186.024 156.81 185C156.81 182.952 156.138 181.352 154.794 180.2C153.471 179.048 151.412 178.472 148.618 178.472H144.266V192.296H148.618ZM171.594 217H161.802C159.988 217 158.687 216.317 157.898 214.952L150.154 201.416C149.791 200.84 149.386 200.424 148.938 200.168C148.49 199.891 147.85 199.752 147.017 199.752H144.266V217H133.45V170.376H148.618C151.988 170.376 154.858 170.728 157.226 171.432C159.615 172.115 161.556 173.075 163.05 174.312C164.564 175.549 165.663 177.011 166.346 178.696C167.028 180.381 167.37 182.216 167.37 184.2C167.37 185.715 167.167 187.144 166.762 188.488C166.356 189.832 165.759 191.08 164.97 192.232C164.18 193.363 163.199 194.376 162.026 195.272C160.874 196.168 159.54 196.904 158.026 197.48C158.73 197.843 159.391 198.301 160.01 198.856C160.628 199.389 161.183 200.029 161.674 200.776L171.594 217ZM216.216 170.376V217H210.584C209.752 217 209.048 216.872 208.472 216.616C207.917 216.339 207.363 215.869 206.808 215.208L184.824 187.4C184.909 188.232 184.963 189.043 184.984 189.832C185.027 190.6 185.048 191.325 185.048 192.008V217H175.512V170.376H181.208C181.677 170.376 182.072 170.397 182.392 170.44C182.712 170.483 183 170.568 183.256 170.696C183.512 170.803 183.757 170.963 183.992 171.176C184.227 171.389 184.493 171.677 184.792 172.04L206.968 200.04C206.861 199.144 206.787 198.28 206.744 197.448C206.701 196.595 206.68 195.795 206.68 195.048V170.376H216.216ZM236.142 178.696V189.576H250.798V197.576H236.142V208.68H255.278V217H225.262V170.376H255.278V178.696H236.142ZM284.286 199.272V217H273.47V199.272L256.573 170.376H266.11C267.048 170.376 267.784 170.6 268.318 171.048C268.872 171.475 269.331 172.029 269.694 172.712L276.286 186.28C276.84 187.347 277.342 188.349 277.79 189.288C278.238 190.205 278.632 191.112 278.974 192.008C279.294 191.091 279.656 190.173 280.062 189.256C280.488 188.317 280.979 187.325 281.534 186.28L288.062 172.712C288.211 172.435 288.392 172.157 288.606 171.88C288.819 171.603 289.064 171.357 289.342 171.144C289.64 170.909 289.971 170.728 290.333 170.6C290.718 170.451 291.134 170.376 291.582 170.376H301.182L284.286 199.272Z" fill="#FFE202"/>
<rect x="50" y="257" width="11" height="105" fill="#FFE202"/>
</svg>
