<svg width="544" height="95" viewBox="0 0 544 95" fill="none" xmlns="http://www.w3.org/2000/svg">
<path d="M21.136 22.704V36H13.024V22.704L0.352 1.032H7.504C8.208 1.032 8.76 1.2 9.16 1.536C9.576 1.856 9.92 2.272 10.192 2.784L15.136 12.96C15.552 13.76 15.928 14.512 16.264 15.216C16.6 15.904 16.896 16.584 17.152 17.256C17.392 16.568 17.664 15.88 17.968 15.192C18.288 14.488 18.656 13.744 19.072 12.96L23.968 2.784C24.08 2.576 24.216 2.368 24.376 2.16C24.536 1.952 24.72 1.768 24.928 1.608C25.152 1.432 25.4 1.296 25.672 1.2C25.96 1.088 26.272 1.032 26.608 1.032H33.808L21.136 22.704ZM68.6571 18.504C68.6571 21.032 68.2171 23.384 67.3371 25.56C66.4731 27.736 65.2491 29.632 63.6651 31.248C62.0811 32.848 60.1691 34.104 57.9291 35.016C55.7051 35.928 53.2331 36.384 50.5131 36.384C47.7931 36.384 45.3131 35.928 43.0731 35.016C40.8331 34.104 38.9131 32.848 37.3131 31.248C35.7291 29.632 34.4971 27.736 33.6171 25.56C32.7531 23.384 32.3211 21.032 32.3211 18.504C32.3211 15.976 32.7531 13.624 33.6171 11.448C34.4971 9.272 35.7291 7.384 37.3131 5.784C38.9131 4.184 40.8331 2.928 43.0731 2.016C45.3131 1.104 47.7931 0.647999 50.5131 0.647999C53.2331 0.647999 55.7051 1.112 57.9291 2.04C60.1691 2.952 62.0811 4.208 63.6651 5.808C65.2491 7.408 66.4731 9.296 67.3371 11.472C68.2171 13.648 68.6571 15.992 68.6571 18.504ZM60.3531 18.504C60.3531 16.776 60.1291 15.224 59.6811 13.848C59.2331 12.456 58.5851 11.28 57.7371 10.32C56.9051 9.36 55.8811 8.624 54.6651 8.112C53.4491 7.6 52.0651 7.344 50.5131 7.344C48.9451 7.344 47.5451 7.6 46.3131 8.112C45.0971 8.624 44.0651 9.36 43.2171 10.32C42.3851 11.28 41.7451 12.456 41.2971 13.848C40.8491 15.224 40.6251 16.776 40.6251 18.504C40.6251 20.248 40.8491 21.816 41.2971 23.208C41.7451 24.584 42.3851 25.752 43.2171 26.712C44.0651 27.672 45.0971 28.408 46.3131 28.92C47.5451 29.416 48.9451 29.664 50.5131 29.664C52.0651 29.664 53.4491 29.416 54.6651 28.92C55.8811 28.408 56.9051 27.672 57.7371 26.712C58.5851 25.752 59.2331 24.584 59.6811 23.208C60.1291 21.816 60.3531 20.248 60.3531 18.504ZM88.0229 29.592C89.1109 29.592 90.0789 29.416 90.9269 29.064C91.7909 28.696 92.5189 28.176 93.1109 27.504C93.7029 26.832 94.1509 26.016 94.4549 25.056C94.7749 24.08 94.9349 22.976 94.9349 21.744V1.032H103.047V21.744C103.047 23.888 102.695 25.856 101.991 27.648C101.303 29.44 100.311 30.984 99.0149 32.28C97.7189 33.576 96.1429 34.584 94.2869 35.304C92.4309 36.024 90.3429 36.384 88.0229 36.384C85.6869 36.384 83.5909 36.024 81.7349 35.304C79.8789 34.584 78.3029 33.576 77.0069 32.28C75.7109 30.984 74.7189 29.44 74.0309 27.648C73.3429 25.856 72.9989 23.888 72.9989 21.744V1.032H81.1109V21.72C81.1109 22.952 81.2629 24.056 81.5669 25.032C81.8869 25.992 82.3429 26.816 82.9349 27.504C83.5269 28.176 84.2469 28.696 85.0949 29.064C85.9589 29.416 86.9349 29.592 88.0229 29.592ZM120.76 17.472C121.864 17.472 122.8 17.336 123.568 17.064C124.352 16.776 124.992 16.384 125.488 15.888C125.984 15.392 126.344 14.816 126.568 14.16C126.792 13.488 126.904 12.768 126.904 12C126.904 10.464 126.4 9.264 125.392 8.4C124.4 7.536 122.856 7.104 120.76 7.104H117.496V17.472H120.76ZM137.992 36H130.648C129.288 36 128.312 35.488 127.72 34.464L121.912 24.312C121.64 23.88 121.336 23.568 121 23.376C120.664 23.168 120.184 23.064 119.56 23.064H117.496V36H109.384V1.032H120.76C123.288 1.032 125.44 1.296 127.216 1.824C129.008 2.336 130.464 3.056 131.584 3.984C132.72 4.912 133.544 6.008 134.056 7.272C134.568 8.536 134.824 9.912 134.824 11.4C134.824 12.536 134.672 13.608 134.368 14.616C134.064 15.624 133.616 16.56 133.024 17.424C132.432 18.272 131.696 19.032 130.816 19.704C129.952 20.376 128.952 20.928 127.816 21.36C128.344 21.632 128.84 21.976 129.304 22.392C129.768 22.792 130.184 23.272 130.552 23.832L137.992 36ZM18.856 81.328C18.856 83.28 18.608 85.056 18.112 86.656C17.632 88.256 16.896 89.632 15.904 90.784C14.928 91.92 13.696 92.808 12.208 93.448C10.72 94.072 8.968 94.384 6.952 94.384C6.04 94.384 5.136 94.336 4.24 94.24C3.36 94.144 2.44 93.984 1.48 93.76L1.912 89.032C1.96 88.616 2.128 88.28 2.416 88.024C2.704 87.768 3.112 87.64 3.64 87.64C3.912 87.64 4.248 87.688 4.648 87.784C5.048 87.864 5.528 87.904 6.088 87.904C6.872 87.904 7.552 87.8 8.128 87.592C8.72 87.368 9.208 87.008 9.592 86.512C9.976 86 10.264 85.336 10.456 84.52C10.648 83.704 10.744 82.696 10.744 81.496V59.032H18.856V81.328ZM59.6103 76.504C59.6103 79.032 59.1703 81.384 58.2903 83.56C57.4263 85.736 56.2023 87.632 54.6183 89.248C53.0343 90.848 51.1223 92.104 48.8823 93.016C46.6583 93.928 44.1863 94.384 41.4663 94.384C38.7463 94.384 36.2663 93.928 34.0262 93.016C31.7863 92.104 29.8663 90.848 28.2663 89.248C26.6823 87.632 25.4503 85.736 24.5703 83.56C23.7063 81.384 23.2743 79.032 23.2743 76.504C23.2743 73.976 23.7063 71.624 24.5703 69.448C25.4503 67.272 26.6823 65.384 28.2663 63.784C29.8663 62.184 31.7863 60.928 34.0262 60.016C36.2663 59.104 38.7463 58.648 41.4663 58.648C44.1863 58.648 46.6583 59.112 48.8823 60.04C51.1223 60.952 53.0343 62.208 54.6183 63.808C56.2023 65.408 57.4263 67.296 58.2903 69.472C59.1703 71.648 59.6103 73.992 59.6103 76.504ZM51.3063 76.504C51.3063 74.776 51.0823 73.224 50.6343 71.848C50.1863 70.456 49.5383 69.28 48.6903 68.32C47.8583 67.36 46.8343 66.624 45.6183 66.112C44.4023 65.6 43.0183 65.344 41.4663 65.344C39.8983 65.344 38.4983 65.6 37.2663 66.112C36.0503 66.624 35.0183 67.36 34.1703 68.32C33.3383 69.28 32.6983 70.456 32.2503 71.848C31.8023 73.224 31.5783 74.776 31.5783 76.504C31.5783 78.248 31.8023 79.816 32.2503 81.208C32.6983 82.584 33.3383 83.752 34.1703 84.712C35.0183 85.672 36.0503 86.408 37.2663 86.92C38.4983 87.416 39.8983 87.664 41.4663 87.664C43.0183 87.664 44.4023 87.416 45.6183 86.92C46.8343 86.408 47.8583 85.672 48.6903 84.712C49.5383 83.752 50.1863 82.584 50.6343 81.208C51.0823 79.816 51.3063 78.248 51.3063 76.504ZM78.976 87.592C80.064 87.592 81.032 87.416 81.88 87.064C82.744 86.696 83.472 86.176 84.064 85.504C84.656 84.832 85.104 84.016 85.408 83.056C85.728 82.08 85.888 80.976 85.888 79.744V59.032H94V79.744C94 81.888 93.648 83.856 92.944 85.648C92.256 87.44 91.264 88.984 89.968 90.28C88.672 91.576 87.096 92.584 85.24 93.304C83.384 94.024 81.296 94.384 78.976 94.384C76.64 94.384 74.544 94.024 72.688 93.304C70.832 92.584 69.256 91.576 67.96 90.28C66.664 88.984 65.672 87.44 64.984 85.648C64.296 83.856 63.952 81.888 63.952 79.744V59.032H72.064V79.72C72.064 80.952 72.216 82.056 72.52 83.032C72.84 83.992 73.296 84.816 73.888 85.504C74.48 86.176 75.2 86.696 76.048 87.064C76.912 87.416 77.888 87.592 78.976 87.592ZM111.713 75.472C112.817 75.472 113.753 75.336 114.521 75.064C115.305 74.776 115.945 74.384 116.441 73.888C116.937 73.392 117.297 72.816 117.521 72.16C117.745 71.488 117.857 70.768 117.857 70C117.857 68.464 117.353 67.264 116.345 66.4C115.353 65.536 113.809 65.104 111.713 65.104H108.449V75.472H111.713ZM128.945 94H121.601C120.241 94 119.265 93.488 118.673 92.464L112.865 82.312C112.593 81.88 112.289 81.568 111.953 81.376C111.617 81.168 111.137 81.064 110.513 81.064H108.449V94H100.337V59.032H111.713C114.241 59.032 116.393 59.296 118.169 59.824C119.961 60.336 121.417 61.056 122.537 61.984C123.673 62.912 124.497 64.008 125.009 65.272C125.521 66.536 125.777 67.912 125.777 69.4C125.777 70.536 125.625 71.608 125.321 72.616C125.017 73.624 124.569 74.56 123.977 75.424C123.385 76.272 122.649 77.032 121.769 77.704C120.905 78.376 119.905 78.928 118.769 79.36C119.297 79.632 119.793 79.976 120.257 80.392C120.721 80.792 121.137 81.272 121.505 81.832L128.945 94ZM162.412 59.032V94H158.188C157.564 94 157.036 93.904 156.604 93.712C156.188 93.504 155.772 93.152 155.356 92.656L138.868 71.8C138.932 72.424 138.972 73.032 138.988 73.624C139.02 74.2 139.036 74.744 139.036 75.256V94H131.884V59.032H136.156C136.508 59.032 136.804 59.048 137.044 59.08C137.284 59.112 137.5 59.176 137.692 59.272C137.884 59.352 138.068 59.472 138.244 59.632C138.42 59.792 138.62 60.008 138.844 60.28L155.476 81.28C155.396 80.608 155.34 79.96 155.308 79.336C155.276 78.696 155.26 78.096 155.26 77.536V59.032H162.412ZM177.357 65.272V73.432H188.349V79.432H177.357V87.76H191.708V94H169.197V59.032H191.708V65.272H177.357ZM213.464 80.704V94H205.352V80.704L192.68 59.032H199.832C200.536 59.032 201.088 59.2 201.488 59.536C201.904 59.856 202.248 60.272 202.52 60.784L207.464 70.96C207.88 71.76 208.256 72.512 208.592 73.216C208.928 73.904 209.224 74.584 209.48 75.256C209.72 74.568 209.992 73.88 210.296 73.192C210.616 72.488 210.984 71.744 211.4 70.96L216.296 60.784C216.408 60.576 216.544 60.368 216.704 60.16C216.864 59.952 217.048 59.768 217.256 59.608C217.48 59.432 217.728 59.296 218 59.2C218.288 59.088 218.6 59.032 218.936 59.032H226.136L213.464 80.704Z" fill="white"/>
<path d="M171.36 8.136C171.12 8.52 170.864 8.808 170.592 9C170.336 9.192 170 9.288 169.584 9.288C169.216 9.288 168.816 9.176 168.384 8.952C167.968 8.712 167.488 8.448 166.944 8.16C166.416 7.872 165.808 7.616 165.12 7.392C164.432 7.152 163.648 7.032 162.768 7.032C161.248 7.032 160.112 7.36 159.36 8.016C158.624 8.656 158.256 9.528 158.256 10.632C158.256 11.336 158.48 11.92 158.928 12.384C159.376 12.848 159.96 13.248 160.68 13.584C161.416 13.92 162.248 14.232 163.176 14.52C164.12 14.792 165.08 15.104 166.056 15.456C167.032 15.792 167.984 16.192 168.912 16.656C169.856 17.12 170.688 17.712 171.408 18.432C172.144 19.152 172.736 20.032 173.184 21.072C173.632 22.096 173.856 23.336 173.856 24.792C173.856 26.408 173.576 27.92 173.016 29.328C172.456 30.736 171.64 31.968 170.568 33.024C169.512 34.064 168.2 34.888 166.632 35.496C165.08 36.088 163.312 36.384 161.328 36.384C160.24 36.384 159.128 36.272 157.992 36.048C156.872 35.824 155.784 35.512 154.728 35.112C153.672 34.696 152.68 34.208 151.752 33.648C150.824 33.088 150.016 32.464 149.328 31.776L151.728 27.984C151.92 27.712 152.168 27.488 152.472 27.312C152.792 27.12 153.136 27.024 153.504 27.024C153.984 27.024 154.464 27.176 154.944 27.48C155.44 27.784 155.992 28.12 156.6 28.488C157.224 28.856 157.936 29.192 158.736 29.496C159.536 29.8 160.48 29.952 161.568 29.952C163.04 29.952 164.184 29.632 165 28.992C165.816 28.336 166.224 27.304 166.224 25.896C166.224 25.08 166 24.416 165.552 23.904C165.104 23.392 164.512 22.968 163.776 22.632C163.056 22.296 162.232 22 161.304 21.744C160.376 21.488 159.424 21.208 158.448 20.904C157.472 20.584 156.52 20.2 155.592 19.752C154.664 19.288 153.832 18.688 153.096 17.952C152.376 17.2 151.792 16.272 151.344 15.168C150.896 14.048 150.672 12.672 150.672 11.04C150.672 9.728 150.936 8.448 151.464 7.2C151.992 5.952 152.768 4.84 153.792 3.864C154.816 2.888 156.072 2.112 157.56 1.536C159.048 0.943998 160.752 0.647999 162.672 0.647999C163.744 0.647999 164.784 0.735999 165.792 0.912C166.816 1.072 167.784 1.32 168.696 1.656C169.608 1.976 170.456 2.368 171.24 2.832C172.04 3.28 172.752 3.792 173.376 4.368L171.36 8.136ZM225.977 1.032L215.177 36H207.833L201.257 14.328C201.129 13.992 201.009 13.624 200.897 13.224C200.785 12.808 200.673 12.376 200.561 11.928C200.449 12.376 200.337 12.808 200.225 13.224C200.113 13.624 199.993 13.992 199.865 14.328L193.193 36H185.849L175.049 1.032H181.865C182.569 1.032 183.153 1.192 183.617 1.512C184.097 1.832 184.409 2.256 184.553 2.784L189.353 21.024C189.497 21.6 189.641 22.232 189.785 22.92C189.929 23.592 190.073 24.296 190.217 25.032C190.505 23.528 190.857 22.192 191.273 21.024L196.937 2.784C197.081 2.336 197.385 1.936 197.849 1.584C198.329 1.216 198.905 1.032 199.577 1.032H201.977C202.681 1.032 203.249 1.2 203.681 1.536C204.113 1.856 204.441 2.272 204.665 2.784L210.281 21.024C210.697 22.144 211.049 23.416 211.337 24.84C211.465 24.12 211.593 23.448 211.721 22.824C211.865 22.184 212.009 21.584 212.153 21.024L216.953 2.784C217.081 2.32 217.385 1.912 217.865 1.56C218.345 1.208 218.921 1.032 219.593 1.032H225.977ZM237.638 36H229.478V1.032H237.638V36ZM283.696 1.032V36H276.544V15.888C276.544 15.424 276.552 14.92 276.568 14.376C276.6 13.832 276.648 13.28 276.712 12.72L267.424 30.696C267.136 31.256 266.744 31.68 266.248 31.968C265.768 32.256 265.216 32.4 264.592 32.4H263.488C262.864 32.4 262.304 32.256 261.808 31.968C261.328 31.68 260.944 31.256 260.656 30.696L251.368 12.672C251.416 13.248 251.456 13.816 251.488 14.376C251.52 14.92 251.536 15.424 251.536 15.888V36H244.384V1.032H250.576C250.928 1.032 251.232 1.04 251.488 1.056C251.76 1.072 252 1.12 252.208 1.2C252.416 1.28 252.6 1.408 252.76 1.584C252.936 1.744 253.104 1.976 253.264 2.28L262.264 20.016C262.584 20.624 262.888 21.256 263.176 21.912C263.48 22.568 263.768 23.24 264.04 23.928C264.312 23.224 264.592 22.536 264.88 21.864C265.184 21.192 265.504 20.552 265.84 19.944L274.816 2.28C274.976 1.976 275.136 1.744 275.296 1.584C275.472 1.408 275.664 1.28 275.872 1.2C276.08 1.12 276.312 1.072 276.568 1.056C276.84 1.04 277.152 1.032 277.504 1.032H283.696ZM301.838 17.472C302.942 17.472 303.878 17.336 304.646 17.064C305.43 16.776 306.07 16.384 306.566 15.888C307.062 15.392 307.422 14.816 307.646 14.16C307.87 13.488 307.982 12.768 307.982 12C307.982 10.464 307.478 9.264 306.47 8.4C305.478 7.536 303.934 7.104 301.838 7.104H298.574V17.472H301.838ZM319.07 36H311.726C310.366 36 309.39 35.488 308.798 34.464L302.99 24.312C302.718 23.88 302.414 23.568 302.078 23.376C301.742 23.168 301.262 23.064 300.638 23.064H298.574V36H290.462V1.032H301.838C304.366 1.032 306.518 1.296 308.294 1.824C310.086 2.336 311.542 3.056 312.662 3.984C313.798 4.912 314.622 6.008 315.134 7.272C315.646 8.536 315.902 9.912 315.902 11.4C315.902 12.536 315.75 13.608 315.446 14.616C315.142 15.624 314.694 16.56 314.102 17.424C313.51 18.272 312.774 19.032 311.894 19.704C311.03 20.376 310.03 20.928 308.894 21.36C309.422 21.632 309.918 21.976 310.382 22.392C310.846 22.792 311.262 23.272 311.63 23.832L319.07 36ZM330.169 36H322.009V1.032H330.169V36ZM353.715 17.88H366.147V32.64C364.355 33.952 362.443 34.904 360.411 35.496C358.395 36.088 356.283 36.384 354.075 36.384C351.195 36.384 348.571 35.936 346.203 35.04C343.851 34.128 341.835 32.88 340.155 31.296C338.475 29.696 337.179 27.808 336.267 25.632C335.355 23.44 334.899 21.064 334.899 18.504C334.899 15.896 335.331 13.504 336.195 11.328C337.059 9.136 338.291 7.248 339.891 5.664C341.507 4.08 343.451 2.848 345.723 1.968C348.011 1.088 350.563 0.647999 353.379 0.647999C354.835 0.647999 356.203 0.767999 357.483 1.008C358.763 1.248 359.939 1.576 361.011 1.992C362.099 2.408 363.091 2.904 363.987 3.48C364.883 4.056 365.683 4.68 366.387 5.352L364.035 8.928C363.667 9.488 363.187 9.832 362.595 9.96C362.019 10.088 361.395 9.944 360.723 9.528C360.083 9.144 359.475 8.816 358.899 8.544C358.339 8.256 357.763 8.024 357.171 7.848C356.579 7.672 355.955 7.544 355.299 7.464C354.643 7.384 353.907 7.344 353.091 7.344C351.571 7.344 350.203 7.616 348.987 8.16C347.771 8.688 346.731 9.44 345.867 10.416C345.019 11.392 344.363 12.568 343.899 13.944C343.435 15.304 343.203 16.824 343.203 18.504C343.203 20.36 343.459 22.008 343.971 23.448C344.483 24.888 345.203 26.104 346.131 27.096C347.075 28.088 348.195 28.848 349.491 29.376C350.803 29.888 352.251 30.144 353.835 30.144C354.811 30.144 355.691 30.048 356.475 29.856C357.275 29.664 358.051 29.408 358.803 29.088V23.784H355.347C354.835 23.784 354.435 23.648 354.147 23.376C353.859 23.104 353.715 22.76 353.715 22.344V17.88ZM402.131 1.032V36H393.971V21.216H379.763V36H371.603V1.032H379.763V15.648H393.971V1.032H402.131ZM434.043 7.464H424.203V36H416.091V7.464H406.251V1.032H434.043V7.464ZM259.298 66.136C259.058 66.52 258.802 66.808 258.53 67C258.274 67.192 257.938 67.288 257.522 67.288C257.154 67.288 256.754 67.176 256.322 66.952C255.906 66.712 255.426 66.448 254.882 66.16C254.354 65.872 253.746 65.616 253.058 65.392C252.37 65.152 251.586 65.032 250.706 65.032C249.186 65.032 248.05 65.36 247.298 66.016C246.562 66.656 246.194 67.528 246.194 68.632C246.194 69.336 246.418 69.92 246.866 70.384C247.314 70.848 247.898 71.248 248.618 71.584C249.354 71.92 250.186 72.232 251.114 72.52C252.058 72.792 253.018 73.104 253.994 73.456C254.97 73.792 255.922 74.192 256.85 74.656C257.794 75.12 258.626 75.712 259.346 76.432C260.082 77.152 260.674 78.032 261.122 79.072C261.57 80.096 261.794 81.336 261.794 82.792C261.794 84.408 261.514 85.92 260.954 87.328C260.394 88.736 259.578 89.968 258.506 91.024C257.45 92.064 256.138 92.888 254.57 93.496C253.018 94.088 251.25 94.384 249.266 94.384C248.178 94.384 247.066 94.272 245.93 94.048C244.81 93.824 243.722 93.512 242.666 93.112C241.61 92.696 240.618 92.208 239.69 91.648C238.762 91.088 237.954 90.464 237.266 89.776L239.666 85.984C239.858 85.712 240.106 85.488 240.41 85.312C240.73 85.12 241.074 85.024 241.442 85.024C241.922 85.024 242.402 85.176 242.882 85.48C243.378 85.784 243.93 86.12 244.538 86.488C245.162 86.856 245.874 87.192 246.674 87.496C247.474 87.8 248.418 87.952 249.506 87.952C250.978 87.952 252.122 87.632 252.938 86.992C253.754 86.336 254.162 85.304 254.162 83.896C254.162 83.08 253.938 82.416 253.49 81.904C253.042 81.392 252.45 80.968 251.714 80.632C250.994 80.296 250.17 80 249.242 79.744C248.314 79.488 247.362 79.208 246.386 78.904C245.41 78.584 244.458 78.2 243.53 77.752C242.602 77.288 241.77 76.688 241.034 75.952C240.314 75.2 239.73 74.272 239.282 73.168C238.834 72.048 238.61 70.672 238.61 69.04C238.61 67.728 238.874 66.448 239.402 65.2C239.93 63.952 240.706 62.84 241.73 61.864C242.754 60.888 244.01 60.112 245.498 59.536C246.986 58.944 248.69 58.648 250.61 58.648C251.682 58.648 252.722 58.736 253.73 58.912C254.754 59.072 255.722 59.32 256.634 59.656C257.546 59.976 258.394 60.368 259.178 60.832C259.978 61.28 260.69 61.792 261.314 62.368L259.298 66.136ZM291.684 65.464H281.844V94H273.732V65.464H263.892V59.032H291.684V65.464ZM310.864 80.632L307.624 71.056C307.384 70.448 307.128 69.736 306.856 68.92C306.584 68.088 306.312 67.192 306.04 66.232C305.8 67.208 305.544 68.112 305.272 68.944C305 69.776 304.744 70.496 304.504 71.104L301.288 80.632H310.864ZM323.752 94H317.464C316.76 94 316.192 93.84 315.76 93.52C315.328 93.184 315 92.76 314.776 92.248L312.712 86.152H299.416L297.352 92.248C297.176 92.696 296.856 93.104 296.392 93.472C295.944 93.824 295.384 94 294.712 94H288.376L301.912 59.032H310.216L323.752 94ZM337.885 75.472C338.989 75.472 339.925 75.336 340.693 75.064C341.477 74.776 342.117 74.384 342.613 73.888C343.109 73.392 343.469 72.816 343.693 72.16C343.917 71.488 344.029 70.768 344.029 70C344.029 68.464 343.525 67.264 342.517 66.4C341.525 65.536 339.981 65.104 337.885 65.104H334.621V75.472H337.885ZM355.117 94H347.773C346.413 94 345.437 93.488 344.845 92.464L339.037 82.312C338.765 81.88 338.461 81.568 338.125 81.376C337.789 81.168 337.309 81.064 336.685 81.064H334.621V94H326.509V59.032H337.885C340.413 59.032 342.565 59.296 344.341 59.824C346.133 60.336 347.589 61.056 348.709 61.984C349.845 62.912 350.669 64.008 351.181 65.272C351.693 66.536 351.949 67.912 351.949 69.4C351.949 70.536 351.797 71.608 351.493 72.616C351.189 73.624 350.741 74.56 350.149 75.424C349.557 76.272 348.821 77.032 347.941 77.704C347.077 78.376 346.077 78.928 344.941 79.36C345.469 79.632 345.965 79.976 346.429 80.392C346.893 80.792 347.309 81.272 347.677 81.832L355.117 94ZM382.481 65.464H372.641V94H364.529V65.464H354.689V59.032H382.481V65.464ZM405.923 66.136C405.683 66.52 405.427 66.808 405.155 67C404.899 67.192 404.563 67.288 404.147 67.288C403.779 67.288 403.379 67.176 402.947 66.952C402.531 66.712 402.051 66.448 401.507 66.16C400.979 65.872 400.371 65.616 399.683 65.392C398.995 65.152 398.211 65.032 397.331 65.032C395.811 65.032 394.675 65.36 393.923 66.016C393.187 66.656 392.819 67.528 392.819 68.632C392.819 69.336 393.043 69.92 393.491 70.384C393.939 70.848 394.523 71.248 395.243 71.584C395.979 71.92 396.811 72.232 397.739 72.52C398.683 72.792 399.643 73.104 400.619 73.456C401.595 73.792 402.547 74.192 403.475 74.656C404.419 75.12 405.251 75.712 405.971 76.432C406.707 77.152 407.299 78.032 407.747 79.072C408.195 80.096 408.419 81.336 408.419 82.792C408.419 84.408 408.139 85.92 407.579 87.328C407.019 88.736 406.203 89.968 405.131 91.024C404.075 92.064 402.763 92.888 401.195 93.496C399.643 94.088 397.875 94.384 395.891 94.384C394.803 94.384 393.691 94.272 392.555 94.048C391.435 93.824 390.347 93.512 389.291 93.112C388.235 92.696 387.243 92.208 386.315 91.648C385.387 91.088 384.579 90.464 383.891 89.776L386.291 85.984C386.483 85.712 386.731 85.488 387.035 85.312C387.355 85.12 387.699 85.024 388.067 85.024C388.547 85.024 389.027 85.176 389.507 85.48C390.003 85.784 390.555 86.12 391.163 86.488C391.787 86.856 392.499 87.192 393.299 87.496C394.099 87.8 395.043 87.952 396.131 87.952C397.603 87.952 398.747 87.632 399.563 86.992C400.379 86.336 400.787 85.304 400.787 83.896C400.787 83.08 400.563 82.416 400.115 81.904C399.667 81.392 399.075 80.968 398.339 80.632C397.619 80.296 396.795 80 395.867 79.744C394.939 79.488 393.987 79.208 393.011 78.904C392.035 78.584 391.083 78.2 390.155 77.752C389.227 77.288 388.395 76.688 387.659 75.952C386.939 75.2 386.355 74.272 385.907 73.168C385.459 72.048 385.235 70.672 385.235 69.04C385.235 67.728 385.499 66.448 386.027 65.2C386.555 63.952 387.331 62.84 388.355 61.864C389.379 60.888 390.635 60.112 392.123 59.536C393.611 58.944 395.315 58.648 397.235 58.648C398.307 58.648 399.347 58.736 400.355 58.912C401.379 59.072 402.347 59.32 403.259 59.656C404.171 59.976 405.019 60.368 405.803 60.832C406.603 61.28 407.315 61.792 407.939 62.368L405.923 66.136ZM454.818 59.032V94H446.658V79.216H432.45V94H424.29V59.032H432.45V73.648H446.658V59.032H454.818ZM469.763 65.272V73.432H480.755V79.432H469.763V87.76H484.115V94H461.603V59.032H484.115V65.272H469.763ZM500.494 75.472C501.598 75.472 502.534 75.336 503.302 75.064C504.086 74.776 504.726 74.384 505.222 73.888C505.718 73.392 506.078 72.816 506.302 72.16C506.526 71.488 506.638 70.768 506.638 70C506.638 68.464 506.134 67.264 505.126 66.4C504.134 65.536 502.59 65.104 500.494 65.104H497.23V75.472H500.494ZM517.726 94H510.382C509.022 94 508.046 93.488 507.454 92.464L501.646 82.312C501.374 81.88 501.07 81.568 500.734 81.376C500.398 81.168 499.918 81.064 499.294 81.064H497.23V94H489.118V59.032H500.494C503.022 59.032 505.174 59.296 506.95 59.824C508.742 60.336 510.198 61.056 511.318 61.984C512.454 62.912 513.278 64.008 513.79 65.272C514.302 66.536 514.558 67.912 514.558 69.4C514.558 70.536 514.406 71.608 514.102 72.616C513.798 73.624 513.35 74.56 512.758 75.424C512.166 76.272 511.43 77.032 510.55 77.704C509.686 78.376 508.686 78.928 507.55 79.36C508.078 79.632 508.574 79.976 509.038 80.392C509.502 80.792 509.918 81.272 510.286 81.832L517.726 94ZM528.825 65.272V73.432H539.817V79.432H528.825V87.76H543.177V94H520.665V59.032H543.177V65.272H528.825Z" fill="#F0D402"/>
</svg>
