<svg width="138" height="53" viewBox="0 0 138 53" fill="none" xmlns="http://www.w3.org/2000/svg">
<g clip-path="url(#clip0_60_144)">
<path d="M48.6769 47.9427C48.3531 47.1388 47.5437 46.6565 46.5725 46.978L42.3638 48.425C37.9932 49.8719 33.1369 49.3896 29.0901 47.4603L29.4138 47.1388C32.1657 44.4057 32.1657 39.904 29.4138 37.1709L17.2732 25.1129C15.1689 22.7013 11.2839 22.7013 9.01766 24.9521L1.89519 32.0261C1.40957 32.5084 1.08582 33.1515 1.08582 33.9554C1.08582 34.7593 1.40957 35.4024 1.89519 35.8847C2.86644 36.8493 4.3233 37.0101 5.29455 36.2062L13.2264 31.0615L17.7589 35.5631L13.5501 39.7432C10.9602 39.5825 8.20829 39.904 5.6183 40.7079L1.40957 42.1548C0.600196 42.4764 0.114574 43.2802 0.438322 44.2449C0.762071 45.0487 1.57144 45.5311 2.54269 45.2095L6.75142 43.7626C12.5789 41.8333 19.0539 43.1195 23.5863 47.2996C27.3095 50.6758 32.1657 52.4443 37.1838 52.4443C39.2881 52.4443 41.5544 52.1228 43.6588 51.4797L47.8675 50.0327C48.515 49.7112 49.0006 48.7465 48.6769 47.9427Z" fill="black"/>
<path d="M35.8888 35.5631C40.4213 35.5631 43.9825 32.0261 43.9825 27.5245C43.9825 23.0228 40.4213 19.4858 35.8888 19.4858C31.3563 19.4858 27.7951 23.0228 27.7951 27.5245C27.7951 32.0261 31.3563 35.5631 35.8888 35.5631Z" fill="black"/>
</g>
<path d="M85.5563 33.1906C85.2938 32.5187 84.6375 32.1156 83.85 32.3844L80.4375 33.5937C76.8938 34.8031 72.9563 34.4 69.675 32.7875L69.9375 32.5187C72.1688 30.2344 72.1688 26.4719 69.9375 24.1875L60.0938 14.1094C58.3875 12.0937 55.2375 12.0937 53.4 13.975L47.625 19.8875C47.2312 20.2906 46.9687 20.8281 46.9687 21.5C46.9687 22.1719 47.2312 22.7094 47.625 23.1125C48.4125 23.9187 49.5937 24.0531 50.3812 23.3812L56.8125 19.0812L60.4875 22.8437L57.075 26.3375C54.975 26.2031 52.7438 26.4719 50.6438 27.1437L47.2312 28.3531C46.575 28.6219 46.1812 29.2937 46.4437 30.1C46.7062 30.7719 47.3625 31.175 48.15 30.9062L51.5625 29.6969C56.2875 28.0844 61.5375 29.1594 65.2125 32.6531C68.2313 35.475 72.1688 36.9531 76.2375 36.9531C77.9438 36.9531 79.7813 36.6844 81.4875 36.1469L84.9 34.9375C85.425 34.6687 85.8188 33.8625 85.5563 33.1906Z" fill="#4D4D4D"/>
<path d="M75.1875 22.8438C78.8625 22.8438 81.75 19.8875 81.75 16.125C81.75 12.3625 78.8625 9.40625 75.1875 9.40625C71.5125 9.40625 68.625 12.3625 68.625 16.125C68.625 19.8875 71.5125 22.8438 75.1875 22.8438Z" fill="#4D4D4D"/>
<path d="M137.34 47.9427C137.016 47.1388 136.207 46.6565 135.236 46.978L131.027 48.425C126.656 49.8719 121.8 49.3896 117.753 47.4603L118.077 47.1388C120.829 44.4057 120.829 39.904 118.077 37.1709L105.936 25.1129C103.832 22.7013 99.947 22.7013 97.6807 24.9521L90.5583 32.0261C90.0727 32.5084 89.7489 33.1515 89.7489 33.9554C89.7489 34.7593 90.0727 35.4024 90.5583 35.8847C91.5295 36.8493 92.9864 37.0101 93.9576 36.2062L101.889 31.0615L106.422 35.5631L102.213 39.7432C99.6232 39.5825 96.8714 39.904 94.2814 40.7079L90.0727 42.1548C89.2633 42.4764 88.7777 43.2802 89.1014 44.2449C89.4252 45.0487 90.2345 45.5311 91.2058 45.2095L95.4145 43.7626C101.242 41.8333 107.717 43.1195 112.249 47.2996C115.973 50.6758 120.829 52.4443 125.847 52.4443C127.951 52.4443 130.217 52.1228 132.322 51.4797L136.531 50.0327C137.178 49.7112 137.664 48.7465 137.34 47.9427Z" fill="black"/>
<path d="M124.552 35.5631C129.084 35.5631 132.646 32.0261 132.646 27.5245C132.646 23.0228 129.084 19.4858 124.552 19.4858C120.019 19.4858 116.458 23.0228 116.458 27.5245C116.458 32.0261 120.019 35.5631 124.552 35.5631Z" fill="black"/>
<defs>
<clipPath id="clip0_60_144">
<rect width="49" height="34" fill="white" transform="translate(0 19)"/>
</clipPath>
</defs>
</svg>
